<?xml version="1.0" encoding="UTF-8"?>
<svg width="21px" height="20px" viewBox="0 0 21 20" version="1.1" xmlns="http://www.w3.org/2000/svg" xmlns:xlink="http://www.w3.org/1999/xlink">
    <!-- Generator: Sketch 40.3 (33839) - http://www.bohemiancoding.com/sketch -->
    <title>Assign</title>
    <desc>Created with Sketch.</desc>
    <defs></defs>
    <g id="Page-1" stroke="none" stroke-width="1" fill="none" fill-rule="evenodd">
        <g id="Process-Approvals" transform="translate(-779.000000, -994.000000)" fill="#FFFFFF">
            <g id="Bottom-Controls" transform="translate(0.000000, 971.000000)">
                <g id="Assign-Bot" transform="translate(773.000000, 16.000000)">
                    <path d="M16.5,7 L16.28125,7.2209596 L16.240125,7.24835859 C16.1959375,7.28282828 16.1600625,7.32436869 16.13075,7.3729798 L12.6854375,10.838952 C12.5366875,10.9808081 12.5025625,11.2066288 12.603625,11.3864899 C12.70425,11.5659091 12.9129375,11.653851 13.109375,11.5986111 C13.188125,11.5760732 13.258125,11.5345328 13.3145625,11.4744318 L16.0625,8.69873737 L16.0625,21.3208333 C16.059,21.4573864 16.1189375,21.5868687 16.2230625,21.6730429 C16.325875,21.7592172 16.464125,21.7919192 16.5958125,21.7627525 C16.64,21.7508207 16.681125,21.7318182 16.71875,21.7075126 C16.7275,21.7039773 16.7375625,21.6986742 16.745875,21.6938131 C16.7716875,21.6730429 16.794,21.6505051 16.8145625,21.6248737 C16.8469375,21.5970328 16.8740625,21.5643308 16.896375,21.5280934 C16.9169375,21.4847854 16.9305,21.4383838 16.9375,21.3897727 C16.93925,21.3672348 16.93925,21.3433712 16.9375,21.3208333 L16.9375,8.69873737 L19.6854375,11.4744318 C19.7913125,11.5831439 19.9470625,11.6313131 20.0958125,11.5986111 C20.13825,11.5866793 20.181125,11.5676768 20.21875,11.5433712 C20.2323125,11.5398359 20.245875,11.5345328 20.259875,11.5296717 C20.28525,11.5089015 20.3075625,11.4863636 20.328125,11.4607323 C20.4886875,11.2826389 20.4834375,11.0082071 20.3145625,10.838952 L16.86925,7.3729798 C16.8605,7.35883838 16.8521875,7.34513889 16.8416875,7.33143939 C16.833375,7.32083333 16.824625,7.31243687 16.8145625,7.30359848 C16.801,7.29343434 16.787,7.28459596 16.7734375,7.27619949 L16.5,7 Z M20.6426875,19.1527778 C20.401625,19.1647096 20.2135,19.3719697 20.22575,19.6154672 C20.2375625,19.8585227 20.44275,20.048548 20.683375,20.0366162 C22.3603125,20.2973485 23.7786875,20.6959596 24.74425,21.1688131 C25.2276875,21.4052399 25.5986875,21.6642045 25.824,21.9006313 C26.04975,22.1375 26.125,22.3270833 26.125,22.5087121 C26.125,22.7606061 25.9574375,23.0659722 25.509875,23.40625 C25.061875,23.7460859 24.36625,24.089899 23.4864375,24.3727273 C21.7259375,24.9392677 19.239625,25.2981061 16.5,25.2981061 C13.760375,25.2981061 11.2740625,24.9392677 9.5135625,24.3727273 C8.63375,24.089899 7.938125,23.7460859 7.490125,23.40625 C7.0425625,23.0659722 6.875,22.7606061 6.875,22.5087121 C6.875,22.3270833 6.95025,22.1375 7.176,21.9006313 C7.4013125,21.6642045 7.7740625,21.415846 8.25575,21.1829545 C9.2213125,20.7167298 10.6414375,20.316351 12.316625,20.0781566 C12.48375,20.0728535 12.6325,19.9707702 12.70075,19.8156566 C12.7694375,19.660101 12.743625,19.4806818 12.636,19.3511995 C12.526625,19.2217172 12.3555625,19.1664773 12.19325,19.2080177 C10.4555,19.4546086 8.9631875,19.8536616 7.8729375,20.3817551 C7.3278125,20.6460227 6.8785,20.9323864 6.546875,21.2792929 C6.21525,21.6261995 6,22.0477904 6,22.5087121 C6,23.1402146 6.399875,23.6926136 6.9708125,24.1243687 C7.5413125,24.5556818 8.3121875,24.9131944 9.254125,25.2150253 C11.135375,25.8213384 13.683375,26.1819444 16.5,26.1819444 C19.316625,26.1819444 21.864625,25.8213384 23.745875,25.2150253 C24.6878125,24.9131944 25.4586875,24.5556818 26.0291875,24.1243687 C26.600125,23.6926136 27,23.1402146 27,22.5087121 C27,22.0477904 26.78475,21.6261995 26.453125,21.2792929 C26.1215,20.9323864 25.6721875,20.6477904 25.1270625,20.3817551 C24.0368125,19.8483586 22.54275,19.4356061 20.80675,19.1664773 C20.767375,19.1563131 20.7245,19.1510101 20.683375,19.1527778 L20.6426875,19.1527778 L20.6426875,19.1527778 Z" id="Assign"></path>
                </g>
            </g>
        </g>
    </g>
</svg>