<?xml version="1.0" encoding="UTF-8" standalone="no"?>
<!-- Created with Inkscape (http://www.inkscape.org/) -->

<svg
   xmlns:dc="http://purl.org/dc/elements/1.1/"
   xmlns:cc="http://creativecommons.org/ns#"
   xmlns:rdf="http://www.w3.org/1999/02/22-rdf-syntax-ns#"
   xmlns:svg="http://www.w3.org/2000/svg"
   xmlns="http://www.w3.org/2000/svg"
   xmlns:sodipodi="http://sodipodi.sourceforge.net/DTD/sodipodi-0.dtd"
   xmlns:inkscape="http://www.inkscape.org/namespaces/inkscape"
   id="svg4136"
   version="1.1"
   inkscape:version="0.91 r13725"
   xml:space="preserve"
   width="677.70087"
   height="437.14899"
   viewBox="0 0 677.70087 437.14898"
   sodipodi:docname="ALL 4 logo RGB2.svg"><metadata
     id="metadata4142"><rdf:RDF><cc:Work
         rdf:about=""><dc:format>image/svg+xml</dc:format><dc:type
           rdf:resource="http://purl.org/dc/dcmitype/StillImage" /><dc:title></dc:title></cc:Work></rdf:RDF></metadata><defs
     id="defs4140" /><sodipodi:namedview
     pagecolor="#ffffff"
     bordercolor="#666666"
     borderopacity="1"
     objecttolerance="10"
     gridtolerance="10"
     guidetolerance="10"
     inkscape:pageopacity="0"
     inkscape:pageshadow="2"
     inkscape:window-width="1280"
     inkscape:window-height="657"
     id="namedview4138"
     showgrid="false"
     inkscape:snap-page="true"
     fit-margin-top="0"
     fit-margin-left="0"
     fit-margin-right="0"
     fit-margin-bottom="0"
     inkscape:zoom="0.4656196"
     inkscape:cx="338.85638"
     inkscape:cy="218.49307"
     inkscape:window-x="-8"
     inkscape:window-y="-8"
     inkscape:window-maximized="1"
     inkscape:current-layer="g4144" /><g
     id="g4144"
     inkscape:groupmode="layer"
     inkscape:label="ALL 4 logo RGB2"
     transform="matrix(1.25,0,0,-1.25,-405.23738,744.83662)"><g
       id="g4146"
       transform="translate(405.1782,442.8389)"><path
         d="m 0,0 -47.943,-20.412 -0.121,-0.079 -1.582,-1.166 7.102,-72.127 1.62,-1.91 L 4.764,-75.569 0.248,-0.304 0,0 Z"
         style="fill:#807a78;fill-opacity:1;fill-rule:nonzero;stroke:none"
         id="path4148"
         inkscape:connector-curvature="0" /></g><g
       id="g4150"
       transform="translate(324.2114,442.8057)"><path
         d="m 0,0 7.355,-72.966 32.672,-22.68 -7.021,75.256 0.017,0.011 -0.007,0.042 L 0,0 Z"
         style="fill:#716c6b;fill-opacity:1;fill-rule:nonzero;stroke:none"
         id="path4152"
         inkscape:connector-curvature="0" /></g><g
       id="g4154"
       transform="translate(324.1899,442.79)"><path
         d="M 0,0 49.09,20.258 80.999,0.009 33.037,-20.367 0,0 Z"
         style="fill:#ffffff;fill-opacity:1;fill-rule:nonzero;stroke:none"
         id="path4156"
         inkscape:connector-curvature="0" /></g><g
       id="g4158"
       transform="translate(713.9277,595.8574)"><path
         d="m 0,0 -3.415,-108.771 -53.557,-24.728 2.004,111.724 1.391,0.828 L -1.185,-0.306 0,0 Z"
         style="fill:#ffdf43;fill-opacity:1;fill-rule:nonzero;stroke:none"
         id="path4160"
         inkscape:connector-curvature="0" /></g><g
       id="g4162"
       transform="translate(508.0796,570.8291)"><path
         d="M 0,0 1.193,-114.354 -30.715,-96.512 -36.052,17.845 0,0 Z"
         style="fill:#d7b612;fill-opacity:1;fill-rule:nonzero;stroke:none"
         id="path4164"
         inkscape:connector-curvature="0" /></g><g
       id="g4166"
       transform="translate(660.4619,574.7402)"><path
         d="m 0,0 -2.757,-112.208 -148.79,-4.734 -1.448,113.24 0.26,0.811 L -0.158,0.682 0,0 Z"
         style="fill:#ffd611;fill-opacity:1;fill-rule:nonzero;stroke:none"
         id="path4168"
         inkscape:connector-curvature="0" /></g><g
       id="g4170"
       transform="translate(623.0664,503.29)"><path
         d="m 0,0 0.54,-90.871 -39.434,24.256 0,84.326 L 0,0 Z"
         style="fill:#b8131b;fill-opacity:1;fill-rule:nonzero;stroke:none"
         id="path4172"
         inkscape:connector-curvature="0" /></g><g
       id="g4174"
       transform="translate(814.9307,582.7812)"><path
         d="m 0,0 -4.521,-89.477 -186.965,-80.806 -0.563,90.878 L 0,0 Z"
         style="fill:#d1091e;fill-opacity:1;fill-rule:nonzero;stroke:none"
         id="path4176"
         inkscape:connector-curvature="0" /></g><g
       id="g4178"
       transform="translate(610.8955,486.9414)"><path
         d="m 0,0 -0.306,-75.998 -43.101,-21.3 0.284,78.608 0.638,0.435 L 0,0 Z"
         style="fill:#63cbc6;fill-opacity:1;fill-rule:nonzero;stroke:none"
         id="path4180"
         inkscape:connector-curvature="0" /></g><g
       id="g4182"
       transform="translate(409.5249,546.5947)"><path
         d="M 0,0 40.711,14.742 201.371,-59.638 158.896,-77.904 0,0 Z"
         style="fill:#ffffff;fill-opacity:1;fill-rule:nonzero;stroke:none"
         id="path4184"
         inkscape:connector-curvature="0" /></g><g
       id="g4186"
       transform="translate(568.4106,468.7256)"><path
         d="M 0,0 -0.722,-82.818 -153.602,2.566 -158.857,77.854 0,0 Z"
         style="fill:#5ca7a5;fill-opacity:1;fill-rule:nonzero;stroke:none"
         id="path4188"
         inkscape:connector-curvature="0" /></g><g
       id="g4190"
       transform="translate(553.4814,508.3496)"><path
         d="M 0,0 -0.609,-127.862 -140.594,-192.32 -149.433,-58.749 0,0 Z"
         style="fill:#6d2d83;fill-opacity:1;fill-rule:nonzero;stroke:none"
         id="path4192"
         inkscape:connector-curvature="0" /></g><g
       id="g4194"
       transform="translate(404.563,449.8301)"><path
         d="m 0,0 8.346,-133.773 -35.984,23.911 -10.874,133.067 0.157,0 L 0,0 Z"
         style="fill:#5c246e;fill-opacity:1;fill-rule:nonzero;stroke:none"
         id="path4196"
         inkscape:connector-curvature="0" /></g><g
       id="g4198"
       transform="translate(866.3506,564.5127)"><path
         d="M 0,0 -6.355,-79.812 -68.381,-81.337 -68.433,-2.854 0,0 Z"
         style="fill:#009540;fill-opacity:1;fill-rule:nonzero;stroke:none"
         id="path4200"
         inkscape:connector-curvature="0" /></g><g
       id="g4202"
       transform="translate(853.5762,542.5918)"><path
         d="m 0,0 -5.397,-67.713 -316.981,-169.309 -2.172,88.895 L 0,0 Z"
         style="fill:#1c3d74;fill-opacity:1;fill-rule:nonzero;stroke:none"
         id="path4204"
         inkscape:connector-curvature="0" /></g><g
       id="g4206"
       transform="translate(529.1021,394.4746)"><path
         d="M 0,0 2.088,-88.913 -38.364,-66.862 -41.227,23.314 0,0 Z"
         style="fill:#192d48;fill-opacity:1;fill-rule:nonzero;stroke:none"
         id="path4208"
         inkscape:connector-curvature="0" /></g><g
       id="g4210"
       transform="translate(748.915,380.876)"><path
         d="m 0,0 -2.344,-42.176 -39.838,-22.339 -0.504,0.546 1.403,40.489 0.261,0.343 L 0,0 Z"
         style="fill:#ec008c;fill-opacity:1;fill-rule:nonzero;stroke:none"
         id="path4212"
         inkscape:connector-curvature="0" /></g><g
       id="g4214"
       transform="translate(707.9209,357.71)"><path
         d="M 0,0 -1.193,-41.324 -70.907,-5.117 -70.745,37.418 0,0 Z"
         style="fill:#d4207c;fill-opacity:1;fill-rule:nonzero;stroke:none"
         id="path4216"
         inkscape:connector-curvature="0" /></g><g
       id="g4218"
       transform="translate(567.3804,345.1621)"><path
         d="m 0,0 -0.548,-72.014 -49.882,-26.998 -0.768,2.073 -2.038,71.686 0.565,0.399 L 0,0 Z"
         style="fill:#85b7e3;fill-opacity:1;fill-rule:nonzero;stroke:none"
         id="path4220"
         inkscape:connector-curvature="0" /></g><g
       id="g4222"
       transform="translate(514.7466,320.2852)"><path
         d="M 0,0 2.211,-74.129 -89.16,-12.501 -93.231,57.239 0,0 Z"
         style="fill:#6e96b9;fill-opacity:1;fill-rule:nonzero;stroke:none"
         id="path4224"
         inkscape:connector-curvature="0" /></g><g
       id="g4226"
       transform="translate(507.4722,571.0273)"><path
         d="M 0,0 -35.476,17.65 206.485,24.842 153.005,3.718 0,0 Z"
         style="fill:#ffffff;fill-opacity:1;fill-rule:nonzero;stroke:none"
         id="path4228"
         inkscape:connector-curvature="0" /></g><g
       id="g4230"
       transform="translate(735.9258,580.8086)"><path
         d="M 0,0 79.005,1.978 -113.044,-77.433 -151.765,-59.808 0,0 Z"
         style="fill:#ffffff;fill-opacity:1;fill-rule:nonzero;stroke:none"
         id="path4232"
         inkscape:connector-curvature="0" /></g><g
       id="g4234"
       transform="translate(851.6172,582.7764)"><path
         d="M 0,0 14.724,-18.258 -53.718,-21.122 -6.624,-0.65 0,0 Z"
         style="fill:#ffffff;fill-opacity:1;fill-rule:nonzero;stroke:none"
         id="path4236"
         inkscape:connector-curvature="0" /></g><g
       id="g4238"
       transform="translate(853.6338,542.5947)"><path
         d="m 0,0 -324.608,-148.12 -41.158,23.344 L -82.969,-1.758 0,0 Z"
         style="fill:#ffffff;fill-opacity:1;fill-rule:nonzero;stroke:none"
         id="path4240"
         inkscape:connector-curvature="0" /></g><g
       id="g4242"
       transform="translate(679.2412,414.5996)"><path
         d="M 0,0 69.68,-33.72 28.66,-56.967 -42.11,-19.478 0,0 Z"
         style="fill:#ffffff;fill-opacity:1;fill-rule:nonzero;stroke:none"
         id="path4244"
         inkscape:connector-curvature="0" /></g><g
       id="g4246"
       transform="translate(470.5532,399.3281)"><path
         d="M 0,0 96.854,-54.173 44.146,-79.027 -49.028,-21.802 0,0 Z"
         style="fill:#ffffff;fill-opacity:1;fill-rule:nonzero;stroke:none"
         id="path4248"
         inkscape:connector-curvature="0" /></g><g
       id="g4250"
       transform="translate(366.0278,473.0312)"><path
         d="M 0,0 147.934,53.811 187.466,35.294 38.51,-23.229 0,0 Z"
         style="fill:#ffffff;fill-opacity:1;fill-rule:nonzero;stroke:none"
         id="path4252"
         inkscape:connector-curvature="0" /></g></g></svg>