<?xml version="1.0" encoding="UTF-8"?>
<svg width="67px" height="43px" viewBox="0 0 67 43" version="1.1" xmlns="http://www.w3.org/2000/svg" xmlns:xlink="http://www.w3.org/1999/xlink">
    <!-- Generator: Sketch 40.3 (33839) - http://www.bohemiancoding.com/sketch -->
    <title>C4 Logo</title>
    <desc>Created with Sketch.</desc>
    <defs></defs>
    <g id="Page-1" stroke="none" stroke-width="1" fill="none" fill-rule="evenodd">
        <g id="Process-Approvals" transform="translate(-17.000000, -17.000000)">
            <g id="Top-Bar" transform="translate(-4.000000, 0.000000)">
                <g id="C4-Logo" transform="translate(21.000000, 15.000000)">
                    <g id="svg4136">
                        <g id="g4144" transform="translate(33.574661, 22.960073) scale(1, -1) translate(-33.574661, -22.960073) translate(0.074661, 0.960073)">
                            <g id="g4146" transform="translate(3.815472, 12.295361)" fill="#807A78">
                                <polygon id="path4148" points="6.1188136 11.5904108 0.251727992 9.12599974 0.236920463 9.1164618 0.0433212003 8.9756866 0.912437484 0.267545317 1.11068705 0.0369444346 6.70181416 2.46670504 6.14916292 11.5537079"></polygon>
                            </g>
                            <g id="g4150" transform="translate(0.025870, 12.291353)" fill="#716C6B">
                                <polygon id="path4152" points="0 11.5904108 0.900077481 2.7809742 4.89835504 0.04273964 4.03915123 9.12865588 4.04123163 9.12998395 4.040375 9.13505475"></polygon>
                            </g>
                            <g id="g4154" transform="translate(0.023239, 21.344466)" fill="#FFFFFF">
                                <polygon id="path4156" points="0 2.53540237 6.00745119 4.98122053 9.91235566 2.53648897 4.0429449 0.0764242715"></polygon>
                            </g>
                            <g id="g4158" transform="translate(40.742451, 26.181941)" fill="#FFDF43">
                                <polygon id="path4160" points="6.97544751 16.1782818 6.55753254 3.04598412 0.00342653562 0.0604874566 0.248668585 13.549311 0.418893979 13.6492783 6.83043162 16.1413374"></polygon>
                            </g>
                            <g id="g4162" transform="translate(17.999053, 25.454124)" fill="#D7B612">
                                <polygon id="path4164" points="4.52792207 13.8843463 4.67391696 0.0779938063 0.76913487 2.23211996 0.116012706 16.0388347"></polygon>
                            </g>
                            <g id="g4166" transform="translate(22.451383, 25.684858)" fill="#FFD611">
                                <polygon id="path4168" points="18.7235696 14.1258132 18.3861782 0.578554675 0.177812723 0.00700253989 0.00061188136 13.678858 0.0324297121 13.7767728 18.7042342 14.2081534"></polygon>
                            </g>
                            <g id="g4170" transform="translate(31.825957, 20.197498)" fill="#B8131B">
                                <polygon id="path4172" points="4.77267461 10.9867436 4.8387578 0.0155746146 0.0129718848 2.94408509 0.0129718848 13.1250537"></polygon>
                            </g>
                            <g id="g4174" transform="translate(36.459648, 20.136069)" fill="#D1091E">
                                <polygon id="path4176" points="23.6186205 20.6454193 23.0653574 9.84255275 0.185277676 0.086565881 0.116379835 11.05858"></polygon>
                            </g>
                            <g id="g4178" transform="translate(29.724646, 17.378541)" fill="#63CBC6">
                                <polygon id="path4180" points="5.38455597 11.8318777 5.34710883 2.65637729 0.0725691293 0.0847548793 0.107323991 9.57536963 0.185400052 9.62788868"></polygon>
                            </g>
                            <g id="g4182" transform="translate(10.466218, 26.995359)" fill="#FFFFFF">
                                <polygon id="path4184" points="0 9.41720881 4.98206041 11.1970613 24.6430323 2.21690754 19.4451001 0.0115904108"></polygon>
                            </g>
                            <g id="g4186" transform="translate(10.452231, 16.990287)" fill="#5CA7A5">
                                <polygon id="path4188" points="19.4578273 10.020876 19.3694716 0.0219734872 0.660587116 10.3306781 0.0174998069 19.4204578"></polygon>
                            </g>
                            <g id="g4190" transform="translate(9.726637, 8.493550)" fill="#6D2D83">
                                <polygon id="path4192" points="18.3564408 23.3015551 18.2819137 7.86433523 1.15107121 0.0820987435 0.0693873462 16.2085859"></polygon>
                            </g>
                            <g id="g4194" transform="translate(5.086325, 8.551562)" fill="#5C246E">
                                <polygon id="path4196" points="4.77267461 16.1782818 5.79402698 0.0274064923 1.3904392 2.91426393 0.0597196208 18.9799014 0.0789326955 18.9799014"></polygon>
                            </g>
                            <g id="g4198" transform="translate(57.926882, 28.675727)" fill="#009540">
                                <polygon id="path4200" points="8.44396277 9.9001426 7.66626156 0.264164781 0.0757509124 0.0800462749 0.0693873462 9.55556934"></polygon>
                            </g>
                            <g id="g4202" transform="translate(25.035273, 7.194723)" fill="#1C3D74">
                                <polygon id="path4204" points="39.7722884 28.7345602 39.1118237 20.5593364 0.320870585 0.118077311 0.0550693224 10.850677"></polygon>
                            </g>
                            <g id="g4206" transform="translate(19.959827, 7.301307)" fill="#192D48">
                                <polygon id="path4208" points="5.13980343 10.7452767 5.39532508 0.0105038098 0.444960125 2.67279704 0.0945968583 13.5600563"></polygon>
                            </g>
                            <g id="g4210" transform="translate(46.737334, 8.557104)" fill="#EC008C">
                                <polygon id="path4212" points="5.2621797 7.84767401 4.97532972 2.75562018 0.100103791 0.0585557215 0.0384261494 0.124476183 0.210120059 5.01285269 0.242060266 5.05426426"></polygon>
                            </g>
                            <g id="g4214" transform="translate(38.294093, 8.537062)" fill="#D4207C">
                                <polygon id="path4216" points="8.68871531 5.07080475 8.54272042 0.0816158097 0.0113809933 4.4530117 0.0312059494 9.58840884"></polygon>
                            </g>
                            <g id="g4218" transform="translate(23.175667, 0.019571)" fill="#85B7E3">
                                <polygon id="path4220" points="6.60831869 12.0733446 6.54125649 3.37884623 0.436883291 0.119284645 0.342898314 0.369565079 0.0934954718 9.02446291 0.162638066 9.07263556"></polygon>
                            </g>
                            <g id="g4222" transform="translate(11.839488, 0.034433)" fill="#6E96B9">
                                <polygon id="path4224" points="11.5033696 9.05500848 11.7739435 0.105158832 0.592301157 7.54571966 0.0941073532 15.9656702"></polygon>
                            </g>
                            <g id="g4226" transform="translate(18.047098, 39.362400)" fill="#FFFFFF">
                                <polygon id="path4228" points="4.40554579 0 0.0641251665 2.13094533 29.6744103 2.99926027 23.1297273 0.448886954"></polygon>
                            </g>
                            <g id="g4230" transform="translate(31.808750, 31.126121)" fill="#FFFFFF">
                                <polygon id="path4232" points="18.6011933 9.41720881 28.2695307 9.65601957 4.76729005 0.0684558641 0.0287584239 2.19638286"></polygon>
                            </g>
                            <g id="g4234" transform="translate(57.959507, 38.124773)" fill="#FFFFFF">
                                <polygon id="path4236" points="6.60831869 2.65613582 8.41018692 0.451784556 0.0345101087 0.106003966 5.79769826 2.57765908"></polygon>
                            </g>
                            <g id="g4238" transform="translate(20.024894, 17.940350)" fill="#FFFFFF">
                                <polygon id="path4240" points="44.7897156 17.9892835 5.06539865 0.106245433 0.0286360477 2.924647 34.6362787 17.7770341"></polygon>
                            </g>
                            <g id="g4242" transform="translate(38.210914, 13.594538)" fill="#FFFFFF">
                                <polygon id="path4244" points="5.2621797 6.88180644 13.7893583 2.81067463 8.76948365 0.00398420373 0.108914882 4.53016037"></polygon>
                            </g>
                            <g id="g4246" transform="translate(11.815821, 8.973888)" fill="#FFFFFF">
                                <polygon id="path4248" points="6.1188136 9.65867571 17.9714451 3.11818272 11.5212365 0.117473643 0.118949736 7.02644511"></polygon>
                            </g>
                            <g id="g4250" transform="translate(5.143205, 24.633390)" fill="#FFFFFF">
                                <polygon id="path4252" points="0 2.89760271 18.1036114 9.39439019 22.9413902 7.15876897 4.71271024 0.0930854871"></polygon>
                            </g>
                        </g>
                    </g>
                </g>
            </g>
        </g>
    </g>
</svg>