<?xml version="1.0" encoding="UTF-8"?>
<svg width="12px" height="11px" viewBox="0 0 12 11" version="1.1" xmlns="http://www.w3.org/2000/svg" xmlns:xlink="http://www.w3.org/1999/xlink">
    <!-- Generator: Sketch 40.3 (33839) - http://www.bohemiancoding.com/sketch -->
    <title>Checked</title>
    <desc>Created with Sketch.</desc>
    <defs></defs>
    <g id="Page-1" stroke="none" stroke-width="1" fill="none" fill-rule="evenodd">
        <g id="Process-Approvals" transform="translate(-49.000000, -408.000000)" fill="#FFFFFF">
            <g id="Rows" transform="translate(41.000000, 186.000000)">
                <g id="Row1" transform="translate(0.000000, 216.000000)">
                    <g id="Unchecked-Checkbox" transform="translate(3.000000, 0.000000)">
                        <path d="M16.1805714,6.9515 L15.156,6.2816 C14.8725714,6.0968 14.4845714,6.16775 14.2948571,6.43835 L9.27257143,13.5669 L6.96457143,11.34545 C6.72342857,11.11335 6.33028571,11.11335 6.08914286,11.34545 L5.212,12.1897 C4.97085714,12.4218 4.97085714,12.79965 5.212,13.03395 L8.76114286,16.45 C8.96,16.6414 9.27257143,16.78715 9.55371429,16.78715 C9.83485714,16.78715 10.1182857,16.61775 10.3011429,16.362 L16.3457143,7.7787 C16.5377143,7.5081 16.464,7.1363 16.1805714,6.9515 L16.1805714,6.9515 Z" id="Checked"></path>
                    </g>
                </g>
            </g>
        </g>
    </g>
</svg>