<?xml version="1.0" encoding="UTF-8"?>
<svg width="18px" height="24px" viewBox="0 0 18 24" version="1.1" xmlns="http://www.w3.org/2000/svg" xmlns:xlink="http://www.w3.org/1999/xlink">
    <!-- Generator: Sketch 41.2 (35397) - http://www.bohemiancoding.com/sketch -->
    <title>Shape</title>
    <desc>Created with Sketch.</desc>
    <defs></defs>
    <g id="Page-1" stroke="none" stroke-width="1" fill="none" fill-rule="evenodd">
        <g id="Amend-Revenue-Set" transform="translate(-1697.000000, -460.000000)" fill="#9B9B9B">
            <g id="File_000000_-1" transform="translate(1697.000000, 460.000000)">
                <path d="M15.2997097,4.68883504 C15.083497,4.47616677 14.8619675,4.25995403 14.6439826,4.04019681 C14.4242254,3.82221184 14.2080126,3.60068239 13.9953444,3.38446965 C12.4783107,1.83642187 11.5753567,0.9609375 10.6334135,0.9609375 L3.54447115,0.9609375 C1.59058143,0.9609375 0,2.55151893 0,4.50540865 L0,20.4555288 C0,22.4094186 1.59058143,24 3.54447115,24 L14.1778846,24 C16.1317743,24 17.7223558,22.4094186 17.7223558,20.4555288 L17.7223558,8.04987981 C17.7223558,7.10882272 16.8468714,6.20498257 15.2997097,4.68883504 Z M15.9501202,20.4555288 C15.9501202,21.4338029 15.1561587,22.2277644 14.1778846,22.2277644 L3.54447115,22.2277644 C2.56619712,22.2277644 1.77223558,21.4338029 1.77223558,20.4555288 L1.77223558,4.50540865 C1.77223558,3.52713462 2.56619712,2.73317308 3.54447115,2.73317308 L10.0033837,2.72962861 C10.6422746,2.89267428 10.6334135,3.67777464 10.6334135,4.46376112 L10.6334135,7.16376202 C10.6334135,7.65201292 11.0312803,8.04987981 11.5195312,8.04987981 L14.1778846,8.04987981 C15.0622302,8.04987981 15.9501202,8.0543104 15.9501202,8.9359976 L15.9501202,20.4555288 Z" id="Shape"></path>
            </g>
        </g>
    </g>
</svg>