<?xml version="1.0" encoding="UTF-8"?>
<svg width="22px" height="20px" viewBox="0 0 22 20" version="1.1" xmlns="http://www.w3.org/2000/svg" xmlns:xlink="http://www.w3.org/1999/xlink">
    <!-- Generator: Sketch 40.3 (33839) - http://www.bohemiancoding.com/sketch -->
    <title>Error</title>
    <desc>Created with Sketch.</desc>
    <defs>
        <polygon id="path-1" points="22 0.184044281 22 19.047619 0.0264 19.047619 0.0264 0.184044281"></polygon>
    </defs>
    <g id="Page-1" stroke="none" stroke-width="1" fill="none" fill-rule="evenodd">
        <g id="Process-Approvals" transform="translate(-937.000000, -884.000000)">
            <g id="Notifications" transform="translate(914.000000, 581.000000)">
                <g id="Error" transform="translate(23.000000, 303.000000)">
                    <mask id="mask-2" fill="white">
                        <use xlink:href="#path-1"></use>
                    </mask>
                    <g id="Clip-2"></g>
                    <path d="M10.93136,0.18961039 C10.79716,0.20952381 10.68012,0.289177489 10.615,0.406060606 L0.055,18.3982684 C-0.0242,18.5333333 -0.0242,18.6991342 0.05676,18.8329004 C0.13596,18.9662338 0.28204,19.0493506 0.44,19.047619 L21.56,19.047619 C21.71796,19.0493506 21.86404,18.9662338 21.94324,18.8329004 C22.0242,18.6991342 22.0242,18.5333333 21.945,18.3982684 L11.385,0.406060606 C11.29568,0.246753247 11.11352,0.160606061 10.93136,0.18961039 L10.93136,0.18961039 Z M11,1.48831169 L20.79,18.1818182 L1.21,18.1818182 L11,1.48831169 Z M10.49136,6.88571429 C10.39676,6.88571429 10.34,6.94155844 10.34,7.03463203 L10.34,13.2982684 C10.34,13.391342 10.39676,13.4606061 10.49136,13.4606061 L11.50864,13.4606061 C11.60324,13.4606061 11.66,13.391342 11.66,13.2982684 L11.66,7.03463203 C11.66,6.94155844 11.60324,6.88571429 11.50864,6.88571429 L10.49136,6.88571429 Z M10.395,14.7051948 C10.33648,14.7272727 10.31272,14.7844156 10.31272,14.8536797 L10.31272,15.9904762 C10.31272,16.0831169 10.36904,16.138961 10.46364,16.138961 L11.53636,16.138961 C11.63096,16.138961 11.68728,16.0831169 11.68728,15.9904762 L11.68728,14.8536797 C11.68728,14.761039 11.63096,14.7051948 11.53636,14.7051948 L10.46364,14.7051948 C10.43988,14.7051948 10.41392,14.6982684 10.395,14.7051948 L10.395,14.7051948 Z" id="Fill-1" fill="#000000" mask="url(#mask-2)"></path>
                </g>
            </g>
        </g>
    </g>
</svg>