<?xml version="1.0" encoding="UTF-8"?>
<svg width="20px" height="24px" viewBox="0 0 20 24" version="1.1" xmlns="http://www.w3.org/2000/svg" xmlns:xlink="http://www.w3.org/1999/xlink">
    <!-- Generator: Sketch 40.3 (33839) - http://www.bohemiancoding.com/sketch -->
    <title>Exit</title>
    <desc>Created with Sketch.</desc>
    <defs></defs>
    <g id="Page-1" stroke="none" stroke-width="1" fill="none" fill-rule="evenodd">
        <g id="Process-Approvals" transform="translate(-1798.000000, -29.000000)" fill="#414D59">
            <g id="Top-Bar" transform="translate(-4.000000, 0.000000)">
                <g id="Logout" transform="translate(1741.000000, 29.000000)">
                    <g id="Exit" transform="translate(61.000000, 0.000000)">
                        <path d="M3.29218843,0 C1.82874657,0 0.641025641,1.24061538 0.641025641,2.76923077 L0.641025641,21.2307692 C0.641025641,22.7593846 1.82874657,24 3.29218843,24 L15.6642815,24 C17.1277233,24 18.3154442,22.7593846 18.3154442,21.2307692 L18.3154442,16.4418462 L16.5480024,18.0572308 L16.5480024,21.2307692 C16.5480024,21.7393846 16.1512117,22.1538462 15.6642815,22.1538462 L3.29218843,22.1538462 C2.8052582,22.1538462 2.4084675,21.7393846 2.4084675,21.2307692 L2.4084675,2.76923077 C2.4084675,2.26061538 2.8052582,1.84615385 3.29218843,1.84615385 L15.6642815,1.84615385 C16.1512117,1.84615385 16.5480024,2.26061538 16.5480024,2.76923077 L16.5480024,5.94276923 L18.3154442,7.55815385 L18.3154442,2.76923077 C18.3154442,1.24061538 17.1277233,0 15.6642815,0 L3.29218843,0 Z M12.5712582,5.97138462 C12.350328,6.03969231 12.1293977,6.27415385 12.1293977,6.89446154 L12.1293977,9.23076923 L6.82707215,9.23076923 C6.34014192,9.23076923 5.94335122,9.64523077 5.94335122,10.1538462 L5.94335122,13.8461538 C5.94335122,14.3547692 6.34014192,14.7692308 6.82707215,14.7692308 L12.1293977,14.7692308 L12.1293977,17.0769231 C12.1293977,18.2593846 13.0131187,18 13.0131187,18 L19.6410256,12 L13.0131187,6 C13.0131187,6 12.7921884,5.90307692 12.5712582,5.97138462 L12.5712582,5.97138462 Z" id="Fill-1"></path>
                    </g>
                </g>
            </g>
        </g>
    </g>
</svg>