<?xml version="1.0" encoding="UTF-8"?>
<svg width="18px" height="18px" viewBox="0 0 18 18" version="1.1" xmlns="http://www.w3.org/2000/svg" xmlns:xlink="http://www.w3.org/1999/xlink">
    <!-- Generator: Sketch 41.1 (35376) - http://www.bohemiancoding.com/sketch -->
    <title>Shape</title>
    <desc>Created with Sketch.</desc>
    <defs></defs>
    <g id="Page-1" stroke="none" stroke-width="1" fill="none" fill-rule="evenodd">
        <g id="Process-Approvals" transform="translate(-1184.000000, -993.000000)" fill="#FFFFFF">
            <g id="External" transform="translate(1184.000000, 993.000000)">
                <path d="M9,0.3825 L8.78625,0.575316635 C8.75011363,0.601740787 8.71957312,0.634455887 8.69625,0.671724953 L5.86125,3.36044581 C5.76879776,3.44846591 5.73268746,3.57676531 5.76652251,3.6970113 C5.80035757,3.8172573 5.89899717,3.91118005 6.02528199,3.94339714 C6.15156681,3.97561423 6.28630948,3.94123069 6.37875,3.85319943 L8.64,1.70008034 L8.64,9.09138469 C8.6381639,9.21500532 8.70637511,9.32999103 8.81851423,9.39231154 C8.93065335,9.45463206 9.06934665,9.45463206 9.18148577,9.39231154 C9.29362489,9.32999103 9.3618361,9.21500532 9.36,9.09138469 L9.36,1.70008034 L11.62125,3.85319943 C11.7136905,3.94123069 11.8484332,3.97561423 11.974718,3.94339714 C12.1010028,3.91118005 12.1996424,3.8172573 12.2334775,3.6970113 C12.2673125,3.57676531 12.2312022,3.44846591 12.13875,3.36044581 L9.30375,0.671724953 C9.2817434,0.642992303 9.25517562,0.617694974 9.225,0.596740706 L9,0.3825 Z M5.76,0.832405482 C5.74477386,0.835051802 5.7297427,0.838629899 5.715,0.843117517 C5.68415523,0.84653339 5.65390417,0.853734511 5.625,0.864541588 C2.32597735,2.13604907 0,5.21922594 0,8.81287177 C0,13.5417383 4.033647,17.3825 9,17.3825 C13.966353,17.3825 18,13.5417383 18,8.81287177 C18,5.21924856 15.6743888,2.13604568 12.375,0.864541588 C12.1886039,0.793548463 11.9770584,0.879875411 11.9025,1.05735822 C11.8279416,1.23484103 11.9186039,1.43627058 12.105,1.50726371 C15.1387312,2.67638974 17.28,5.50074577 17.28,8.81287177 C17.28,13.171239 13.577247,16.6969297 9,16.6969297 C4.422753,16.6969297 0.72,13.171239 0.72,8.81287177 C0.72,5.50076839 2.86162265,2.67638634 5.895,1.50726371 C6.0907159,1.47176714 6.21915421,1.29191933 6.18187499,1.10556238 C6.14459577,0.919205434 5.95571591,0.796908925 5.76,0.832405482 L5.76,0.832405482 Z" id="Shape"></path>
            </g>
        </g>
    </g>
</svg>