<?xml version="1.0" encoding="UTF-8"?>
<svg width="15px" height="20px" viewBox="0 0 15 20" version="1.1" xmlns="http://www.w3.org/2000/svg" xmlns:xlink="http://www.w3.org/1999/xlink">
    <!-- Generator: Sketch 41.2 (35397) - http://www.bohemiancoding.com/sketch -->
    <title>Shape</title>
    <desc>Created with Sketch.</desc>
    <defs></defs>
    <g id="Page-1" stroke="none" stroke-width="1" fill="none" fill-rule="evenodd">
        <g id="Value-Items" transform="translate(-1079.000000, -993.000000)" fill="#FFFFFF">
            <g id="Finish-Flag_000000_-1" transform="translate(1079.000000, 993.000000)">
                <path d="M0,0 L0,13 L0,20 L1,20 L1,13 L13,13 C14.1,13 15,12.1 15,11 L15,2 C15,0.9 14.1,0 13,0 L1,0 L0,0 Z M4,2 L7,2 L7,5 L10,5 L10,2 L13,2 L13,5 L10,5 L10,8 L13,8 L13,11 L10,11 L10,8 L7,8 L7,11 L4,11 L4,8 L1,8 L1,5 L4,5 L4,2 Z M4,5 L4,8 L7,8 L7,5 L4,5 Z" id="Shape"></path>
            </g>
        </g>
    </g>
</svg>