<?xml version="1.0" encoding="UTF-8"?>
<svg width="15px" height="17px" viewBox="0 0 15 17" version="1.1" xmlns="http://www.w3.org/2000/svg" xmlns:xlink="http://www.w3.org/1999/xlink">
    <!-- Generator: Sketch 40.3 (33839) - http://www.bohemiancoding.com/sketch -->
    <title>Goto</title>
    <desc>Created with Sketch.</desc>
    <defs></defs>
    <g id="Page-1" stroke="none" stroke-width="1" fill="none" fill-rule="evenodd">
        <g id="Process-Approvals" transform="translate(-879.000000, -995.000000)" fill="#FFFFFF">
            <g id="Bottom-Controls" transform="translate(0.000000, 971.000000)">
                <g id="GoTo-Bot" transform="translate(869.000000, 16.000000)">
                    <path d="M20.1100563,8.00123244 C19.963358,8.02705134 19.8456082,8.13423891 19.8041415,8.27624287 C19.7630659,8.41981162 19.8057062,8.57276906 19.9144586,8.6733063 L23.5083716,12.2676105 L17.4327144,12.2676105 C14.9494054,12.2676105 13.0806645,12.8954793 11.8339245,14.0158632 C10.5867932,15.1358558 10,16.7295863 10,18.5267384 C10,22.033806 11.6258085,24.6023956 11.6258085,24.6023956 C11.6946589,24.7322725 11.8307949,24.81325 11.9774932,24.8116852 C12.1241915,24.8101204 12.257198,24.7264046 12.3229188,24.5933981 C12.3882485,24.4619564 12.3729919,24.3046958 12.2861465,24.186946 C12.2861465,24.186946 10.782391,21.7924384 10.782391,18.5267384 C10.782391,16.8978004 11.2929011,15.5606942 12.3593,14.6026564 C13.4260901,13.6446186 15.0824119,13.0500015 17.4327144,13.0500015 L23.5083716,13.0500015 L19.9144586,16.6443057 C19.7982735,16.738975 19.7446797,16.8899764 19.7783226,17.0366748 C19.8119654,17.1818083 19.9265856,17.2964286 20.0717192,17.3300714 C20.2184175,17.3637142 20.3698101,17.3105116 20.4644794,17.1943265 L24.7308575,12.9400755 L25,12.658806 L24.7308575,12.3775364 L20.4644794,8.12328543 C20.383502,8.03644003 20.2657521,7.99184375 20.1468287,8.00123244 L20.1100563,8.00123244 L20.1100563,8.00123244 Z" id="Goto"></path>
                </g>
            </g>
        </g>
    </g>
</svg>