<?xml version="1.0" encoding="UTF-8"?>
<svg width="20px" height="20px" viewBox="0 0 20 20" version="1.1" xmlns="http://www.w3.org/2000/svg" xmlns:xlink="http://www.w3.org/1999/xlink">
    <!-- Generator: Sketch 40.3 (33839) - http://www.bohemiancoding.com/sketch -->
    <title>High Priority</title>
    <desc>Created with Sketch.</desc>
    <defs>
        <polygon id="path-1" points="19.9950549 20 0.024 20 0.024 0 10.0095274 0 19.9950549 0"></polygon>
    </defs>
    <g id="Page-1" stroke="none" stroke-width="1" fill="none" fill-rule="evenodd">
        <g id="Process-Approvals" transform="translate(-936.000000, -762.000000)">
            <g id="Notifications" transform="translate(914.000000, 581.000000)">
                <g id="High-Priority" transform="translate(22.000000, 181.000000)">
                    <mask id="mask-2" fill="white">
                        <use xlink:href="#path-1"></use>
                    </mask>
                    <g id="Clip-2"></g>
                    <path d="M10,0 C9.5752,0 9.1468,0.1532 8.8124,0.4624 C8.808,0.4672 8.8048,0.4704 8.8,0.4752 L0.4752,8.8376 C-0.1624,9.4752 -0.1564,10.5172 0.4624,11.1876 C0.4672,11.192 0.4704,11.1952 0.4752,11.2 L8.8,19.5248 C9.4376,20.1624 10.4796,20.1564 11.15,19.5376 C11.1548,19.5328 11.158,19.5296 11.1624,19.5248 L19.4876,11.2 C20.1532,10.5344 20.1624,9.4752 19.5248,8.8376 L11.1624,0.4752 C10.8436,0.1564 10.4248,0 10,0 L10,0 Z M9.9876,0.8 C10.2124,0.8 10.4392,0.8764 10.6,1.0376 L18.9624,9.4 C19.286,9.7236 19.2876,10.2624 18.9124,10.6376 L10.6124,18.95 C10.608,18.9548 10.6048,18.9592 10.6,18.9624 C10.2296,19.292 9.6812,19.2812 9.3624,18.9624 L1.05,10.65 C1.0452,10.6452 1.042,10.642 1.0376,10.6376 C0.8736,10.4532 0.7984,10.2236 0.8,10 C0.8,9.9436 0.8016,9.892 0.8124,9.8376 C0.8436,9.6752 0.9172,9.5204 1.0376,9.4 L9.35,1.05 L9.3624,1.0376 C9.5452,0.8752 9.7672,0.8 9.9876,0.8 L9.9876,0.8 Z M9.5248,5.6 C9.4048,5.6 9.3624,5.6828 9.3624,5.7624 L9.3624,11.5624 C9.3624,11.6828 9.4452,11.7248 9.5248,11.7248 L10.4376,11.7248 C10.558,11.7248 10.6,11.642 10.6,11.5624 L10.6,5.7624 C10.6,5.642 10.5172,5.6 10.4376,5.6 L9.5248,5.6 Z M9.5248,13.0376 C9.4048,13.0376 9.3624,13.1204 9.3624,13.2 L9.3624,14.2752 C9.3624,14.3952 9.4452,14.4376 9.5248,14.4376 L10.4752,14.4376 C10.5952,14.4376 10.6376,14.3548 10.6376,14.2752 L10.6376,13.2376 C10.6376,13.1172 10.5548,13.0752 10.4752,13.0752 L10.4752,13.0376 L9.5248,13.0376 Z" id="Fill-1" fill="#000000" mask="url(#mask-2)"></path>
                </g>
            </g>
        </g>
    </g>
</svg>