<?xml version="1.0" encoding="UTF-8"?>
<svg width="22px" height="14px" viewBox="0 0 22 14" version="1.1" xmlns="http://www.w3.org/2000/svg" xmlns:xlink="http://www.w3.org/1999/xlink">
    <!-- Generator: Sketch 41.1 (35376) - http://www.bohemiancoding.com/sketch -->
    <title>Shape</title>
    <desc>Created with Sketch.</desc>
    <defs></defs>
    <g id="Page-1" stroke="none" stroke-width="1" fill="none" fill-rule="evenodd">
        <g id="Process-Approvals" transform="translate(-525.000000, -995.000000)" fill="#FFFFFF">
            <g id="Pyramids" transform="translate(521.000000, 997.000000)">
                <path d="M12.6400515,-1.44866336 L4.05925818,11.3125164 C3.96679931,11.4484232 3.95778752,11.6245287 4.03589034,11.7691636 C4.11399316,11.9137984 4.26619041,12.0028511 4.4305425,12.00008 L21.5921291,12.00008 C21.7564812,12.0028511 21.9086784,11.9137984 21.9867813,11.7691636 C22.0648841,11.6245287 22.0558723,11.4484232 21.9634134,11.3125164 L20.9458193,9.79987657 L25.5524952,9.79987657 C25.7168473,9.80264773 25.8690446,9.71359503 25.9471474,9.56896019 C26.0252502,9.42432534 26.0162384,9.24821976 25.9237796,9.112313 L18.8143723,-1.44866336 C18.7233108,-1.58450142 18.5644356,-1.65864318 18.4018342,-1.64118116 C18.2732277,-1.62663846 18.1575431,-1.55622172 18.0855549,-1.44866336 L15.7340875,2.04415955 L13.3826201,-1.44866336 C13.2892117,-1.58928859 13.123591,-1.66408507 12.9563307,-1.64118116 C12.8277243,-1.62663846 12.7120397,-1.55622172 12.6400515,-1.44866336 Z M18.443088,-0.417318015 L24.7136677,8.9197952 L20.3545147,8.9197952 L16.2566358,2.82798201 L18.443088,-0.417318015 Z M13.0113358,-0.403566743 L15.3215494,3.02049981 C15.3389135,3.06036208 15.3620835,3.09743402 15.3903057,3.13050998 L19.6944537,9.53860241 C19.7028386,9.55285958 19.7120207,9.56663271 19.7219562,9.57985623 C19.7435811,9.61256141 19.7527711,9.63094131 19.76321,9.64861258 L20.7533015,11.1199986 L5.26937005,11.1199986 L13.0113358,-0.403566743 Z" id="Shape"></path>
            </g>
        </g>
    </g>
</svg>