<?xml version="1.0" encoding="UTF-8"?>
<svg width="14px" height="18px" viewBox="0 0 14 18" version="1.1" xmlns="http://www.w3.org/2000/svg" xmlns:xlink="http://www.w3.org/1999/xlink">
    <!-- Generator: Sketch 41.1 (35376) - http://www.bohemiancoding.com/sketch -->
    <title>Shape</title>
    <desc>Created with Sketch.</desc>
    <defs></defs>
    <g id="Page-1" stroke="none" stroke-width="1" fill="none" fill-rule="evenodd">
        <g id="Process-Approvals" transform="translate(-678.000000, -993.000000)" fill="#FFFFFF">
            <g id="Bottom-Controls" transform="translate(0.000000, 971.000000)">
                <g id="Maintain-Mapping-Bot" transform="translate(667.000000, 16.000000)">
                    <path d="M11,6 L11,6.39130435 L11,23.6086957 L11,24 L11.3888889,24 L24.6111111,24 L25,24 L25,23.6086957 L25,11.0869565 L25,10.9279891 L24.890625,10.8057065 L20.2239583,6.11005435 L20.1024306,6 L19.9444444,6 L11.3888889,6 L11,6 Z M11.875,6.85714286 L19.53125,6.85714286 L19.53125,11.122449 L19.53125,11.5102041 L19.9140625,11.5102041 L24.125,11.5102041 L24.125,23.1428571 L11.875,23.1428571 L11.875,6.85714286 Z M20.625,7.71428571 L24.125,11.1428571 L20.625,11.1428571 L20.625,7.71428571 Z M14.5,13.7142857 L14.5,14.5714286 L22.375,14.5714286 L22.375,13.7142857 L14.5,13.7142857 Z M14.5,16.2857143 L14.5,17.1428571 L20.625,17.1428571 L20.625,16.2857143 L14.5,16.2857143 Z M14.5,18.8571429 L14.5,19.7142857 L22.375,19.7142857 L22.375,18.8571429 L14.5,18.8571429 Z" id="Shape"></path>
                </g>
            </g>
        </g>
    </g>
</svg>