<?xml version="1.0" encoding="UTF-8"?>
<svg width="16px" height="16px" viewBox="0 0 16 16" version="1.1" xmlns="http://www.w3.org/2000/svg" xmlns:xlink="http://www.w3.org/1999/xlink">
    <!-- Generator: Sketch 40.3 (33839) - http://www.bohemiancoding.com/sketch -->
    <title>Mapping</title>
    <desc>Created with Sketch.</desc>
    <defs></defs>
    <g id="Page-1" stroke="none" stroke-width="1" fill="none" fill-rule="evenodd">
        <g id="Process-Approvals" transform="translate(-977.000000, -995.000000)" fill="#FFFFFF">
            <g id="Bottom-Controls" transform="translate(0.000000, 971.000000)">
                <g id="Maintain-Mapping-Bot" transform="translate(967.000000, 16.000000)">
                    <path d="M11.92,8 C10.86368,8 10,8.86368 10,9.92 C10,10.97632 10.86368,11.84 11.92,11.84 C12.33376,11.84 12.71616,11.70496 13.03008,11.48 L15.52,13.98016 C15.0688,14.5312 14.8,15.2336 14.8,16 C14.8,16.6336 14.99136,17.2224 15.31008,17.72 L13.20992,19.37984 C12.8688,19.07008 12.41504,18.88 11.92,18.88 C10.86368,18.88 10,19.74368 10,20.8 C10,21.85632 10.86368,22.72 11.92,22.72 C12.97632,22.72 13.84,21.85632 13.84,20.8 C13.84,20.46496 13.75264,20.15488 13.6,19.88 L15.71008,18.22016 C16.29248,18.81984 17.10016,19.2 18,19.2 C18.42496,19.2 18.8288,19.12128 19.2,18.96992 L20.04,20.56 C19.58112,20.91136 19.28,21.45984 19.28,22.08 C19.28,23.13632 20.14368,24 21.2,24 C22.25632,24 23.12,23.13632 23.12,22.08 C23.12,21.02368 22.25632,20.16 21.2,20.16 C20.99136,20.16 20.7888,20.19744 20.6,20.25984 L19.76,18.67008 C20.36384,18.27136 20.82496,17.67264 21.04992,16.96992 L22.16,17.2 C22.15872,17.22624 22.16,17.25376 22.16,17.28 C22.16,18.33632 23.02368,19.2 24.08,19.2 C25.13632,19.2 26,18.33632 26,17.28 C26,16.22368 25.13632,15.36 24.08,15.36 C23.2688,15.36 22.56992,15.86496 22.28992,16.57984 L21.18016,16.33984 C21.19136,16.2288 21.2,16.1136 21.2,16 C21.2,14.74112 20.46112,13.6512 19.4,13.12992 L19.88992,11.80992 C20.00256,11.83008 20.12256,11.84 20.24,11.84 C21.29632,11.84 22.16,10.97632 22.16,9.92 C22.16,8.86368 21.29632,8 20.24,8 C19.18368,8 18.32,8.86368 18.32,9.92 C18.32,10.6288 18.71488,11.24736 19.28992,11.58016 L18.8,12.91008 C18.5424,12.84256 18.27744,12.8 18,12.8 C17.2336,12.8 16.5312,13.0688 15.98016,13.52 L13.48,11.03008 C13.70496,10.71616 13.84,10.33376 13.84,9.92 C13.84,8.86368 12.97632,8 11.92,8 L11.92,8 Z M11.92,8.64 C12.63136,8.64 13.2,9.20864 13.2,9.92 C13.2,10.63136 12.63136,11.2 11.92,11.2 C11.20864,11.2 10.64,10.63136 10.64,9.92 C10.64,9.20864 11.20864,8.64 11.92,8.64 L11.92,8.64 Z M20.24,8.64 C20.95136,8.64 21.52,9.20864 21.52,9.92 C21.52,10.63136 20.95136,11.2 20.24,11.2 C19.52864,11.2 18.96,10.63136 18.96,9.92 C18.96,9.20864 19.52864,8.64 20.24,8.64 L20.24,8.64 Z M18,13.44 C19.41888,13.44 20.56,14.58368 20.56,16 C20.56,17.41888 19.41888,18.56 18,18.56 C16.5824,18.56 15.44,17.41888 15.44,16 C15.44,15.31136 15.71008,14.68992 16.15008,14.23008 C16.17632,14.20992 16.2,14.18624 16.22016,14.16 C16.68,13.71488 17.30624,13.44 18,13.44 L18,13.44 Z M24.08,16 C24.79136,16 25.36,16.56864 25.36,17.28 C25.36,17.99136 24.79136,18.56 24.08,18.56 C23.36864,18.56 22.8,17.99136 22.8,17.28 C22.8,16.56864 23.36864,16 24.08,16 L24.08,16 Z M11.92,19.52 C12.63136,19.52 13.2,20.08864 13.2,20.8 C13.2,21.51136 12.63136,22.08 11.92,22.08 C11.20864,22.08 10.64,21.51136 10.64,20.8 C10.64,20.08864 11.20864,19.52 11.92,19.52 L11.92,19.52 Z M21.2,20.8 C21.91136,20.8 22.48,21.36864 22.48,22.08 C22.48,22.79136 21.91136,23.36 21.2,23.36 C20.48864,23.36 19.92,22.79136 19.92,22.08 C19.92,21.59488 20.18496,21.1776 20.57984,20.96 C20.59008,20.95744 20.6,20.9536 20.60992,20.95008 C20.61376,20.94752 20.61632,20.9424 20.62016,20.94016 C20.62624,20.9376 20.6336,20.93376 20.64,20.92992 C20.80864,20.84864 20.99872,20.8 21.2,20.8 L21.2,20.8 Z" id="Mapping"></path>
                </g>
            </g>
        </g>
    </g>
</svg>