<?xml version="1.0" encoding="UTF-8"?>
<svg width="14px" height="20px" viewBox="0 0 14 20" version="1.1" xmlns="http://www.w3.org/2000/svg" xmlns:xlink="http://www.w3.org/1999/xlink">
    <!-- Generator: Sketch 41.2 (35397) - http://www.bohemiancoding.com/sketch -->
    <title>Shape</title>
    <desc>Created with Sketch.</desc>
    <defs></defs>
    <g id="Page-1" stroke="none" stroke-width="1" fill="none" fill-rule="evenodd">
        <g id="CRI" transform="translate(-1027.000000, -991.000000)" fill="#FFFFFF">
            <g id="Whole-Hand_000000_-1" transform="translate(1026.000000, 991.000000)">
                <path d="M8.92323392,0.200710695 C7.9925748,0.200710695 7.41083024,0.989663085 7.41083024,1.7207107 L7.41083024,1.9463357 C7.17234762,1.81114887 6.91393114,1.7207107 6.6546284,1.7207107 C5.94523923,1.7207107 5.15534746,2.25387422 5.10677775,3.1813357 C5.10653156,3.18925043 5.10677775,11.3632107 5.10677775,11.3632107 L3.87794976,9.8788357 C3.23369226,9.17057384 2.14974627,9.18247506 1.47937205,9.8432107 C0.812342212,10.4854882 0.807795322,11.5456487 1.44392509,12.2182107 L5.82753263,17.8707107 C6.46606947,18.7263692 7.45352426,19.2007107 8.50968603,19.2007107 L11.5699404,19.2007107 C13.4398214,19.2007107 14.9728486,17.6599836 14.9728486,15.7807107 L14.9728486,4.7607107 C14.9728486,4.47661548 14.9583386,4.04336836 14.7601669,3.6325857 C14.5619951,3.22180319 14.1068176,2.8607107 13.460445,2.8607107 C13.1601152,2.8607107 12.9164939,2.96100402 12.7042431,3.0863357 L12.7042431,2.8607107 C12.7042431,2.28347261 12.6041379,1.81910797 12.3379579,1.4713357 C12.0717778,1.12356342 11.6455605,0.960710695 11.1918394,0.960710695 C10.8485287,0.960710695 10.5754559,1.07408005 10.3411124,1.2219607 C10.1456421,0.671228633 9.64166688,0.200710695 8.92323392,0.200710695 Z M8.92323392,0.960710695 C9.4293583,0.960710695 9.67943576,1.38775831 9.67943576,1.7207107 L9.67943576,2.4807107 L9.67943576,8.5607107 L10.4356376,8.5607107 L10.4356376,2.4807107 C10.4356376,2.27804404 10.4858142,2.07556636 10.5892411,1.9463357 C10.692668,1.81710503 10.8446989,1.7207107 11.1918394,1.7207107 C11.4943202,1.7207107 11.6352543,1.78823297 11.7471752,1.9344607 C11.8590961,2.08068842 11.9480413,2.37394878 11.9480413,2.8607107 L11.9480413,4.7607107 L11.9480413,9.3207107 L12.7042431,9.3207107 L12.7042431,4.7607107 C12.7042431,4.51280592 12.7299048,4.18130304 12.8342153,3.9650857 C12.9385243,3.7488682 13.048135,3.6207107 13.460445,3.6207107 C13.8727549,3.6207107 13.9823656,3.7488682 14.0866746,3.9650857 C14.1909836,4.18130304 14.2166468,4.51280592 14.2166468,4.7607107 L14.2166468,15.7807107 C14.2166468,17.2454378 13.0273474,18.4407107 11.5699404,18.4407107 L8.50968603,18.4407107 C7.67534321,18.4407107 6.9258969,18.0838022 6.43013097,17.4194607 C6.42627994,17.4154154 2.03470778,11.7432107 2.03470778,11.7432107 C1.62177972,11.3163335 1.62578717,10.7498744 1.99926082,10.4013357 C2.3960254,10.0025781 2.9511314,10.0027195 3.29898273,10.3657107 C3.3029112,10.3698109 5.18948733,12.6457107 5.18948733,12.6457107 C5.29111716,12.7736918 5.46288465,12.821862 5.61576399,12.7652552 C5.76864332,12.7086483 5.86825845,12.5599928 5.86297959,12.3963357 L5.86297959,3.2169607 C5.89642073,2.69792994 6.30833295,2.4807107 6.6546284,2.4807107 C6.8292751,2.4807107 7.03286619,2.54691718 7.17451716,2.6707107 C7.31616813,2.79450421 7.41083024,2.96204404 7.41083024,3.2407107 L7.41083024,8.9407107 L8.16703208,8.9407107 L8.16703208,3.2407107 L8.16703208,1.7207107 C8.16703208,1.38775831 8.41710954,0.960710695 8.92323392,0.960710695 Z" id="Shape"></path>
            </g>
        </g>
    </g>
</svg>