<?xml version="1.0" encoding="UTF-8"?>
<svg width="18px" height="17px" viewBox="0 0 18 17" version="1.1" xmlns="http://www.w3.org/2000/svg" xmlns:xlink="http://www.w3.org/1999/xlink">
    <!-- Generator: Sketch 40.3 (33839) - http://www.bohemiancoding.com/sketch -->
    <title>Notification</title>
    <desc>Created with Sketch.</desc>
    <defs></defs>
    <g id="Page-1" stroke="none" stroke-width="1" fill="none" fill-rule="evenodd">
        <g id="Process-Approvals" transform="translate(-1135.000000, -994.000000)">
            <g id="Bottom-Controls" transform="translate(0.000000, 971.000000)">
                <g id="Notifications" transform="translate(1127.000000, 16.000000)">
                    <g id="Notification" transform="translate(8.000000, 7.000000)">
                        <path d="M5.33333333,0 C2.40133333,0 0,2.35515385 0,5.23076923 C0,8.10638462 2.40133333,10.4615385 5.33333333,10.4615385 L5.66666667,10.4615385 L6.604,8.94984615 C6.138,9.07996154 5.73466667,9.15384615 5.33333333,9.15384615 C3.13266667,9.15384615 1.33333333,7.38911538 1.33333333,5.23076923 C1.33333333,3.07242308 3.13266667,1.30769231 5.33333333,1.30769231 C7.40133333,1.30769231 9.13266667,2.87561538 9.33333333,4.90384615 C9.59866667,4.70703846 10,4.57692308 10.3333333,4.57692308 L10.604,4.57692308 C10.2706667,1.96153846 8,0 5.33333333,0 L5.33333333,0 Z M5.33333333,1.96153846 C5.068,1.96153846 5,2.09688462 5,2.227 L4.896,4.59719231 C4.682,4.73776923 4.54133333,4.96007692 4.54133333,5.23076923 C4.54133333,5.25365385 4.56,5.26934615 4.56266667,5.29223077 L3.604,6.41553846 C3.53666667,6.48223077 3.466,6.66857692 3.66666667,6.86538462 C3.86733333,7.06219231 4.05733333,6.99288462 4.12533333,6.92684615 L5.208,5.98661538 C5.25,5.99446154 5.28933333,6.00753846 5.33333333,6.00753846 C5.776,6.00753846 6.12533333,5.66492308 6.12533333,5.23076923 C6.12533333,4.99865385 6.018,4.80184615 5.854,4.65865385 L5.66666667,2.227 C5.66666667,2.09688462 5.534,1.96153846 5.33333333,1.96153846 L5.33333333,1.96153846 Z" id="Fill-1" fill="#FFFFFF"></path>
                        <path d="M10.292,5.25103846 C9.84133333,5.25103846 9.396,5.53219231 9.06266667,6.08861538 L3.604,15.0384615 C2.93733333,16.1493462 3.45866667,17 4.792,17 L15.792,17 C17.1926667,17 17.7293333,16.0859231 17.0626667,15.0384615 L11.5413333,6.08861538 C11.208,5.53219231 10.742,5.25103846 10.292,5.25103846 L10.292,5.25103846 Z" id="Path" fill="#F8E81C"></path>
                        <path d="M11.0626667,8.56146154 C11.2633333,8.75826923 11.3333333,9.01588462 11.3333333,9.27676923 C11.3333333,9.537 10.9246667,11.4370769 10.792,12.8114615 L9.792,12.8114615 C9.65866667,11.4370769 9.27066667,9.537 9.27066667,9.27676923 C9.27066667,9.01588462 9.40333333,8.75826923 9.604,8.56146154 C9.80466667,8.36465385 10.068,8.23453846 10.3333333,8.23453846 C10.6666667,8.23453846 10.862,8.36465385 11.0626667,8.56146154 Z" id="Path" fill="#414D59"></path>
                        <path d="M10.3333333,13.4038462 C10.5986667,13.4038462 10.862,13.4725 11.0626667,13.6693077 C11.2633333,13.8661154 11.396,14.1243846 11.396,14.3846154 C11.396,14.7115385 11.2633333,14.9031154 11.0626667,15.0999231 C10.862,15.2967308 10.5986667,15.3653846 10.3333333,15.3653846 C10.068,15.3653846 9.80466667,15.2967308 9.604,15.0999231 C9.40333333,14.9031154 9.27066667,14.7115385 9.27066667,14.3846154 C9.27066667,14.1243846 9.40333333,13.8661154 9.604,13.6693077 C9.80466667,13.4725 10.068,13.4038462 10.3333333,13.4038462 L10.3333333,13.4038462 Z" id="Path" fill="#414D59"></path>
                    </g>
                </g>
            </g>
        </g>
    </g>
</svg>