<?xml version="1.0" encoding="UTF-8"?>
<svg width="21px" height="19px" viewBox="0 0 21 19" version="1.1" xmlns="http://www.w3.org/2000/svg" xmlns:xlink="http://www.w3.org/1999/xlink">
    <!-- Generator: Sketch 41.2 (35397) - http://www.bohemiancoding.com/sketch -->
    <title>Shape</title>
    <desc>Created with Sketch.</desc>
    <defs></defs>
    <g id="Page-1" stroke="none" stroke-width="1" fill="none" fill-rule="evenodd">
        <g id="Revenue-Set" transform="translate(-776.000000, -993.000000)" fill="#FFFFFF">
            <g id="Open-Folder_000000_-1" transform="translate(776.000000, 993.000000)">
                <path d="M1.9404578,0.221611594 C1.2828806,0.221611594 0.741274637,0.788794608 0.741274637,1.47742555 L0.741274637,3.15184415 L0.741274637,15.291379 L0.741274637,16.9265535 C0.716720559,17.0225483 0.725576142,17.1245599 0.766257619,17.2143442 C0.878914698,17.7842355 1.36507773,18.2216116 1.9404578,18.2216116 L17.5298389,18.2216116 C18.1266128,18.2216116 18.6164432,17.7500518 18.7040391,17.1489372 C18.7078737,17.1226241 18.7143081,17.097247 18.7165306,17.0704488 C18.7167909,17.06173 18.7167909,17.0530048 18.7165306,17.044286 L18.7290221,16.978879 C18.7290676,16.9744088 18.7290221,16.9702784 18.7290221,16.9657976 L20.7151692,5.74196043 L20.7276607,5.70271625 L20.7276607,5.66347206 C20.7276607,4.97484104 20.1860548,4.40765811 19.5284775,4.40765811 L19.5284775,3.15184415 C19.5284775,2.46321321 18.9868716,1.8960302 18.3292944,1.8960302 L7.9488651,1.8960302 C7.95015103,1.89785787 7.94502452,1.8960302 7.93637361,1.8960302 C7.92350558,1.88668866 7.88744574,1.85492285 7.82395019,1.77829764 C7.72626393,1.66041271 7.61226798,1.46484279 7.48667993,1.25504183 C7.36109187,1.04524086 7.22791059,0.823836841 7.06196922,0.62713485 C6.89602786,0.430432859 6.6647414,0.221611594 6.33746273,0.221611594 L1.9404578,0.221611594 Z M1.9404578,1.0588209 L6.33746273,1.0588209 C6.31317927,1.0588209 6.36346102,1.05930229 6.46237764,1.17655345 C6.56129307,1.29380495 6.67465665,1.49100559 6.79964791,1.69980927 C6.92463917,1.90861295 7.06188488,2.13164769 7.22435861,2.32771625 C7.38683234,2.5237848 7.60816797,2.7332395 7.93637361,2.7332395 L18.3292944,2.7332395 C18.5543159,2.7332395 18.7290221,2.91619611 18.7290221,3.15184415 L18.7290221,4.40765811 L3.9390964,4.40765811 C3.30972887,4.40765811 2.80862216,4.93665299 2.76489622,5.58498369 L2.75240473,5.58498369 L2.73991324,5.66347206 L1.54073008,12.4396349 L1.54073008,3.15184415 L1.54073008,1.47742555 C1.54073008,1.24177742 1.7154362,1.0588209 1.9404578,1.0588209 Z M3.9390964,5.24486741 L19.0538009,5.24486741 L19.2161902,5.24486741 L19.5284775,5.24486741 C19.753499,5.24486741 19.9282052,5.42782401 19.9282052,5.66347206 L17.9670411,16.7695767 L17.9545496,16.7957395 C17.9493161,16.812882 17.9451436,16.8303602 17.9420581,16.8480651 C17.9368246,16.8652076 17.9326521,16.8826858 17.9295666,16.9003907 C17.9293064,16.9091095 17.9293064,16.9178347 17.9295666,16.9265535 C17.9295016,16.9309137 17.9295016,16.9352747 17.9295666,16.9396349 C17.9237483,16.9610545 17.9195712,16.9829263 17.9170751,17.0050418 C17.9159331,17.0179449 17.9192581,17.0317898 17.9170751,17.044286 C17.9160333,17.0617108 17.9160333,17.0791868 17.9170751,17.0966116 C17.8668006,17.2672064 17.7119373,17.3844023 17.5298389,17.3844023 L1.9404578,17.3844023 C1.7154362,17.3844023 1.54073008,17.2014457 1.54073008,16.9657976 L3.52687719,5.74196043 L3.53936868,5.70271625 L3.53936868,5.66347206 C3.53936868,5.42782401 3.7140748,5.24486741 3.9390964,5.24486741 Z" id="Shape"></path>
            </g>
        </g>
    </g>
</svg>