<?xml version="1.0" encoding="UTF-8"?>
<svg width="17px" height="20px" viewBox="0 0 17 20" version="1.1" xmlns="http://www.w3.org/2000/svg" xmlns:xlink="http://www.w3.org/1999/xlink">
    <!-- Generator: Sketch 41.1 (35376) - http://www.bohemiancoding.com/sketch -->
    <title>Shape</title>
    <desc>Created with Sketch.</desc>
    <defs></defs>
    <g id="Page-1" stroke="none" stroke-width="1" fill="none" fill-rule="evenodd">
        <g id="Login" transform="translate(-713.000000, -492.000000)" fill="#A7AFB6">
            <g id="Password" transform="translate(713.000000, 492.000000)">
                <path d="M8.5,0 C6.42931655,0 4.7879473,0.641401946 3.74289773,1.80288462 C2.69784815,2.96436731 2.31818182,4.49360554 2.31818182,6.08173077 L2.31818182,6.92307692 L4.63636364,6.92307692 L4.63636364,6.08173077 C4.63636364,4.85447138 4.91506094,3.94409423 5.45738636,3.34134615 C5.99971179,2.73859808 6.87472891,2.30769231 8.5,2.30769231 C10.1275329,2.30769231 11.001897,2.718182 11.5426136,3.31730769 C12.0833303,3.91643338 12.3636364,4.84233231 12.3636364,6.08173077 L12.3636364,6.92307692 L14.6818182,6.92307692 L14.6818182,6.08173077 C14.6818182,4.48420615 14.3037606,2.93856662 13.2571023,1.77884615 C12.210444,0.619125662 10.5684217,0 8.5,0 Z M2.31818182,7.69230769 C1.03854545,7.69230769 0,8.72615385 0,10 L0,17.6923077 C0,18.9661538 1.03854545,20 2.31818182,20 L14.6818182,20 C15.9614545,20 17,18.9661538 17,17.6923077 L17,10 C17,8.72615385 15.9614545,7.69230769 14.6818182,7.69230769 L2.31818182,7.69230769 Z M3.86363636,12.3076923 C4.71672727,12.3076923 5.40909091,12.9961538 5.40909091,13.8461538 C5.40909091,14.6953846 4.71672727,15.3846154 3.86363636,15.3846154 C3.01054545,15.3846154 2.31818182,14.6953846 2.31818182,13.8461538 C2.31818182,12.9961538 3.01054545,12.3076923 3.86363636,12.3076923 Z M8.5,12.3076923 C9.35309091,12.3076923 10.0454545,12.9961538 10.0454545,13.8461538 C10.0454545,14.6953846 9.35309091,15.3846154 8.5,15.3846154 C7.64690909,15.3846154 6.95454545,14.6953846 6.95454545,13.8461538 C6.95454545,12.9961538 7.64690909,12.3076923 8.5,12.3076923 Z M13.1363636,12.3076923 C13.9894545,12.3076923 14.6818182,12.9961538 14.6818182,13.8461538 C14.6818182,14.6953846 13.9894545,15.3846154 13.1363636,15.3846154 C12.2832727,15.3846154 11.5909091,14.6953846 11.5909091,13.8461538 C11.5909091,12.9961538 12.2832727,12.3076923 13.1363636,12.3076923 Z" id="Shape"></path>
            </g>
        </g>
    </g>
</svg>