<?xml version="1.0" encoding="UTF-8"?>
<svg width="19px" height="19px" viewBox="0 0 19 19" version="1.1" xmlns="http://www.w3.org/2000/svg" xmlns:xlink="http://www.w3.org/1999/xlink">
    <!-- Generator: Sketch 41.2 (35397) - http://www.bohemiancoding.com/sketch -->
    <title>Shape</title>
    <desc>Created with Sketch.</desc>
    <defs></defs>
    <g id="Page-1" stroke="none" stroke-width="1" fill="none" fill-rule="evenodd">
        <g id="CRI" transform="translate(-796.000000, -992.000000)" fill="#FFFFFF">
            <g id="Bottom-Controls" transform="translate(0.000000, 971.000000)">
                <g id="Process_000000_-1" transform="translate(796.000000, 21.101562)">
                    <path d="M9.13558536,0.752477147 C8.37224314,0.743655597 7.58768822,0.846566172 6.83604399,1.03443924 C6.59571908,1.09637547 6.40671194,1.28181406 6.34024258,1.52087968 C6.27377322,1.75994531 6.33994379,2.01630429 6.51382046,2.19335769 C6.68769714,2.3704111 6.9428538,2.44125 7.18314457,2.37918151 C9.56372143,1.7841578 12.0772864,2.37555809 14.0166873,4.07095404 L12.4981223,5.58921144 L16.6633293,5.58921144 L16.6633293,1.42484828 L15.0146015,3.07324203 C13.3360814,1.58133221 11.2509079,0.776922841 9.13558536,0.752477147 Z M0.696702405,2.11890881 L2.30204261,3.72392378 C0.238297194,6.02965587 -0.405942934,9.16121963 0.306214247,12.0092713 C0.368163027,12.2495475 0.553639201,12.4385164 0.792753266,12.5049723 C1.03186733,12.5714282 1.28827826,12.505271 1.46536754,12.3314296 C1.64245683,12.1575881 1.71331008,11.9024831 1.65122901,11.6622411 C1.05241157,9.267456 1.58491288,6.66172305 3.278263,4.72163579 L4.86190941,6.28327197 L4.86190941,2.11890881 L0.696702405,2.11890881 Z M16.9670423,6.89057493 C16.766762,6.91974057 16.5891822,7.03483272 16.4807919,7.20572126 C16.3724016,7.37660981 16.3439932,7.58627926 16.4030038,7.77983998 C17.0066555,10.1939588 16.4585982,12.8187971 14.7325823,14.763824 L13.1923234,13.2238772 L13.1923234,17.3882404 L17.3575304,17.3882404 L15.7088027,15.7398466 C17.805016,13.4318323 18.4648493,10.2995525 17.7480186,7.43280972 C17.6741995,7.1013032 17.3713002,6.8718805 17.0321236,6.89057493 C17.0104418,6.88955778 16.9887241,6.88955778 16.9670423,6.89057493 Z M1.39090357,13.9179378 L1.39090357,18.0823009 L2.99624377,16.477286 C5.30244309,18.5406134 8.43464141,19.1847231 11.2832702,18.47271 C11.5235951,18.4107737 11.7126023,18.2253351 11.7790716,17.9862695 C11.845541,17.7472039 11.7793704,17.4908449 11.6054937,17.3137915 C11.4316171,17.1367381 11.1764604,17.0658992 10.9361696,17.1279677 C8.54089931,17.7266636 5.93463835,17.1942706 3.99415795,15.5012633 L5.55611058,13.9179378 L1.39090357,13.9179378 Z" id="Shape"></path>
                </g>
            </g>
        </g>
    </g>
</svg>