<?xml version="1.0" encoding="UTF-8"?>
<svg width="3px" height="25px" viewBox="0 0 3 25" version="1.1" xmlns="http://www.w3.org/2000/svg" xmlns:xlink="http://www.w3.org/1999/xlink">
    <!-- Generator: Sketch 41.1 (35376) - http://www.bohemiancoding.com/sketch -->
    <title>Shape</title>
    <desc>Created with Sketch.</desc>
    <defs></defs>
    <g id="Page-1" stroke="none" stroke-width="1" fill="none" fill-rule="evenodd">
        <g id="Create-Campaign-" transform="translate(-546.000000, -141.000000)" fill="#000000">
            <g id="Exclamation-Mark" transform="translate(546.000000, 141.000000)">
                <path d="M0.5,0 C0.224,0 0,0.224 0,0.5 L0,19.5 C0,19.7765 0.224,20 0.5,20 L2.5,20 C2.7765,20 3,19.7765 3,19.5 L3,0.5 C3,0.224 2.7765,0 2.5,0 L0.5,0 Z M0.5,22 C0.224,22 0,22.2235 0,22.5 L0,24.5 C0,24.7765 0.224,25 0.5,25 L2.5,25 C2.7765,25 3,24.7765 3,24.5 L3,22.5 C3,22.2235 2.7765,22 2.5,22 L0.5,22 Z" id="Shape"></path>
            </g>
        </g>
    </g>
</svg>