<?xml version="1.0" encoding="UTF-8"?>
<svg width="13px" height="22px" viewBox="0 0 13 22" version="1.1" xmlns="http://www.w3.org/2000/svg" xmlns:xlink="http://www.w3.org/1999/xlink">
    <!-- Generator: Sketch 40.3 (33839) - http://www.bohemiancoding.com/sketch -->
    <title>Question Mark</title>
    <desc>Created with Sketch.</desc>
    <defs></defs>
    <g id="Page-1" stroke="none" stroke-width="1" fill="none" fill-rule="evenodd">
        <g id="Process-Approvals" transform="translate(-1692.000000, -30.000000)" fill="#505F6D">
            <g id="Top-Bar" transform="translate(-4.000000, 0.000000)">
                <g id="Help" transform="translate(1619.000000, 30.000000)">
                    <g id="Question-Mark" transform="translate(77.000000, 0.000000)">
                        <path d="M6.5,-2.67956366e-14 C4.875,-2.67956366e-14 3.34053571,0.56892 2.13292857,1.58136 C0.786964286,2.7258 0,4.4 0,6.16 C0,6.64488 0.416928571,7.04 0.928571429,7.04 L1.85714286,7.04 C2.36878571,7.04 2.78571429,6.64488 2.78571429,6.16 C2.78571429,5.14756 3.24442857,4.22488 4.03371429,3.52 C4.73014286,2.94756 5.57142857,2.64 6.5,2.64 C6.63975,2.64 6.78089286,2.63648 6.92064286,2.68136 C8.63803571,2.85648 9.98585714,4.17648 10.1706429,5.76136 C10.3558929,7.2138 9.55778571,8.57648 8.21228571,9.28136 C6.26228571,10.24892 5.0635,12.09648 5.0635,14.12136 L5.0635,16.72 C5.0635,17.20488 5.48089286,17.6 5.99207143,17.6 L6.92064286,17.6 C7.43228571,17.6 7.84921429,17.20488 7.84921429,16.72 L7.84921429,14.12136 C7.84921429,13.10892 8.49689286,12.1462 9.51785714,11.61864 C11.8866429,10.43108 13.2377143,8.00756 12.9127143,5.5 C12.6336786,2.64 10.2105714,0.34892 7.24007143,0.04136 C7.00792857,-0.00352 6.73214286,-2.67956366e-14 6.5,-2.67956366e-14 L6.5,-2.67956366e-14 Z M5.57142857,19.36 C5.31560714,19.36 5.10714286,19.5558 5.10714286,19.8 L5.10714286,21.56 C5.10714286,21.8042 5.31560714,22 5.57142857,22 L7.42857143,22 C7.68625,22 7.89285714,21.8042 7.89285714,21.56 L7.89285714,19.8 C7.89285714,19.5558 7.68625,19.36 7.42857143,19.36 L5.57142857,19.36 Z" id="Fill-1"></path>
                    </g>
                </g>
            </g>
        </g>
    </g>
</svg>