<?xml version="1.0" encoding="UTF-8"?>
<svg width="20px" height="13px" viewBox="0 0 20 13" version="1.1" xmlns="http://www.w3.org/2000/svg" xmlns:xlink="http://www.w3.org/1999/xlink">
    <!-- Generator: Sketch 41.1 (35376) - http://www.bohemiancoding.com/sketch -->
    <title>Shape</title>
    <desc>Created with Sketch.</desc>
    <defs></defs>
    <g id="Page-1" stroke="none" stroke-width="1" fill="none" fill-rule="evenodd">
        <g id="Agreements" transform="translate(-708.000000, -995.000000)" fill="#FFFFFF">
            <g id="Bottom-Controls" transform="translate(0.000000, 971.000000)">
                <g id="Re-Validate-Bot" transform="translate(700.000000, 16.000000)">
                    <path d="M16.725,8.00042024 C16.5820938,8.01322622 16.4571904,8.09793314 16.3973398,8.22263272 C16.3374893,8.3473323 16.3517842,8.4930797 16.4348398,8.6049733 C16.5178955,8.7168669 16.6570938,8.77790738 16.8,8.7651014 L17.6,8.7651014 L17.6,9.14744198 L18.4,9.14744198 L18.4,8.7651014 L19.2,8.7651014 C19.3442544,8.76705145 19.4784325,8.69460725 19.5511551,8.57550909 C19.6238776,8.45641093 19.6238776,8.30911071 19.5511551,8.19001255 C19.4784325,8.0709144 19.3442544,7.99847019 19.2,8.00042024 L16.8,8.00042024 C16.7875069,7.99985992 16.7749931,7.99985992 16.7625,8.00042024 C16.7500069,7.99986048 16.7374931,7.99986048 16.725,8.00042024 Z M18,9.52978257 C13.1446248,9.52978257 9.2,13.3002579 9.2,17.9412754 L8.8,17.9412754 C8.36277488,17.9412754 8,18.2880342 8,18.7059565 L8,20.2353188 C8,20.6532412 8.36277488,21 8.8,21 L27.2,21 C27.6372252,21 28,20.6532412 28,20.2353188 L28,18.7059565 C28,18.2880342 27.6372252,17.9412754 27.2,17.9412754 L26.8,17.9412754 C26.8,13.3002579 22.8553752,9.52978257 18,9.52978257 Z M18,10.2944637 C22.4230248,10.2944637 26,13.7135207 26,17.9412754 L10,17.9412754 C10,13.7135207 13.5769752,10.2944637 18,10.2944637 Z M8.8,18.7059565 L27.2,18.7059565 L27.2,20.2353188 L8.8,20.2353188 L8.8,18.7059565 Z" id="Shape"></path>
                </g>
            </g>
        </g>
    </g>
</svg>