<?xml version="1.0" encoding="UTF-8"?>
<svg width="18px" height="18px" viewBox="0 0 18 18" version="1.1" xmlns="http://www.w3.org/2000/svg" xmlns:xlink="http://www.w3.org/1999/xlink">
    <!-- Generator: Sketch 41.1 (35376) - http://www.bohemiancoding.com/sketch -->
    <title>Shape</title>
    <desc>Created with Sketch.</desc>
    <defs></defs>
    <g id="Page-1" stroke="none" stroke-width="1" fill="none" fill-rule="evenodd">
        <g id="Process-Approvals" transform="translate(-615.000000, -931.000000)" fill="#FFFFFF">
            <g id="Assign" transform="translate(598.000000, 694.000000)">
                <g id="Assign-Bot" transform="translate(8.000000, 231.000000)">
                    <path d="M10.1248652,6.7520662 C9.50468954,6.7520662 9,7.25675574 9,7.87693145 L9,22.8751348 C9,23.4953105 9.50468954,24 10.1248652,24 L25.1230686,24 C25.7432443,24 26.2479338,23.4953105 26.2479338,22.8751348 L26.2479338,16.5008983 L25.4980236,17.2508085 L25.4980236,22.8751348 C25.4980236,23.08211 25.3300438,23.2500898 25.1230686,23.2500898 L23.2482931,23.2500898 L23.2482931,19.500539 L22.498383,20.2504492 L22.498383,23.2500898 L12.7495508,23.2500898 L12.7495508,16.8055494 C12.7495508,16.6401942 12.8884717,16.5008983 13.0542018,16.5008983 L20.2486525,16.5008983 L20.9985626,15.7509882 L13.0542018,15.7509882 C12.4752712,15.7509882 11.9996407,16.2266187 11.9996407,16.8055494 L11.9996407,23.2500898 L10.1248652,23.2500898 C9.91789004,23.2500898 9.74991017,23.08211 9.74991017,22.8751348 L9.74991017,7.87693145 C9.74991017,7.66995624 9.91789004,7.50197637 10.1248652,7.50197637 L11.9996407,7.50197637 L11.9996407,13.1263026 C11.9996407,13.5361521 12.3397013,13.8762128 12.7495508,13.8762128 L21.3735177,13.8762128 C21.7833673,13.8762128 22.1234279,13.5361521 22.1234279,13.1263026 L22.1234279,7.50197637 L22.3460575,7.50197637 L25.4980236,10.6539425 L25.4980236,12.0014374 C25.9108492,12.0014374 26.2479338,12.1420455 26.2479338,12.1420455 L26.2479338,10.501617 C26.2479338,10.401879 26.2129692,10.3022347 26.1424777,10.2321181 L22.7678819,6.85752232 C22.6977653,6.78703076 22.598121,6.7520662 22.498383,6.7520662 L10.1248652,6.7520662 Z M12.7495508,7.50197637 L21.3735177,7.50197637 L21.3735177,13.1263026 L12.7495508,13.1263026 L12.7495508,7.50197637 Z M19.0534832,8.25188653 C18.8742239,8.28609051 18.7456164,8.44437667 18.7488321,8.62684161 L18.7488321,12.0014374 C18.7488529,12.2085108 18.9167138,12.3763717 19.1237872,12.3763924 L20.2486525,12.3763924 C20.4557259,12.3763717 20.6235869,12.2085108 20.6236076,12.0014374 L20.6236076,8.62684161 C20.6235869,8.41976822 20.4557259,8.25190724 20.2486525,8.25188653 L19.1237872,8.25188653 C19.1120763,8.25133703 19.1003461,8.25133703 19.0886352,8.25188653 C19.0769243,8.25133703 19.0651941,8.25133703 19.0534832,8.25188653 Z M19.4987423,9.0017967 L19.8736974,9.0017967 L19.8736974,11.6264823 L19.4987423,11.6264823 L19.4987423,9.0017967 Z M25.4745889,12.7513475 C25.0834639,12.7514413 24.6831525,12.8983299 24.3848757,13.1966067 L24.3028543,13.2903455 C24.2722639,13.3096985 24.2446368,13.3333789 24.2208329,13.3606495 L24.1270941,13.4543883 L18.338725,19.2427574 C18.2897209,19.287181 18.2533385,19.3437758 18.2332689,19.4068002 L17.6356842,21.6565307 C17.6024102,21.7851176 17.63964,21.9217125 17.7335595,22.015632 C17.827479,22.1095515 17.9640739,22.1467813 18.0926608,22.1135072 L20.3423912,21.5159226 C20.4054157,21.495853 20.4620105,21.4594706 20.5064341,21.4104665 L26.2948032,15.6220974 C26.2942576,15.6225064 26.3449695,15.5719865 26.388542,15.5283586 C26.4158126,15.5045547 26.439493,15.4769276 26.458846,15.4463372 C26.4986516,15.4065169 26.5525848,15.3643158 26.5525848,15.3643158 C27.1495133,14.7673873 27.1487634,13.7931602 26.5525848,13.1966067 C26.2537456,12.897955 25.865714,12.7512538 25.4745889,12.7513475 Z M24.6543747,13.9816689 L25.7675226,15.0948168 L20.0494576,20.8128818 L20.0260229,20.8245991 L18.9245923,19.7231686 L18.9363097,19.6997339 L24.6543747,13.9816689 Z M10.4998203,21.3753144 L10.4998203,22.1252246 L11.2497305,22.1252246 L11.2497305,21.3753144 L10.4998203,21.3753144 Z M23.9982033,21.3753144 L23.9982033,22.1252246 L24.7481135,22.1252246 L24.7481135,21.3753144 L23.9982033,21.3753144 Z" id="Shape"></path>
                </g>
            </g>
        </g>
    </g>
</svg>