<?xml version="1.0" encoding="UTF-8"?>
<svg width="16px" height="16px" viewBox="0 0 16 16" version="1.1" xmlns="http://www.w3.org/2000/svg" xmlns:xlink="http://www.w3.org/1999/xlink">
    <!-- Generator: Sketch 40.3 (33839) - http://www.bohemiancoding.com/sketch -->
    <title>Search</title>
    <desc>Created with Sketch.</desc>
    <defs></defs>
    <g id="Page-1" stroke="none" stroke-width="1" fill="none" fill-rule="evenodd">
        <g id="Process-Approvals" transform="translate(-49.000000, -135.000000)" fill="#FFFFFF">
            <g id="Labels" transform="translate(44.000000, 130.000000)">
                <path d="M11.3394397,5.0235 C7.84193353,5.0235 5,7.80070585 5,11.2185531 C5,14.6364003 7.84193353,17.4136061 11.3394397,17.4136061 C12.7233021,17.4136061 14.0023773,16.9781303 15.0454016,16.2405546 L19.9513821,21.0235 L21,19.9987653 L16.1521932,15.2497105 C17.1049737,14.1652118 17.6788794,12.7574771 17.6788794,11.2185531 C17.6788794,7.80070585 14.8369459,5.0235 11.3394397,5.0235 L11.3394397,5.0235 Z M11.3394397,5.75232977 C14.4334592,5.75232977 16.933063,8.19500276 16.933063,11.2185531 C16.933063,14.2421034 14.4334592,16.6847764 11.3394397,16.6847764 C8.24542022,16.6847764 5.74581644,14.2421034 5.74581644,11.2185531 C5.74581644,8.19500276 8.24542022,5.75232977 11.3394397,5.75232977 L11.3394397,5.75232977 Z" id="Search"></path>
            </g>
        </g>
    </g>
</svg>