<?xml version="1.0" encoding="UTF-8"?>
<svg width="16px" height="16px" viewBox="0 0 16 16" version="1.1" xmlns="http://www.w3.org/2000/svg" xmlns:xlink="http://www.w3.org/1999/xlink">
    <!-- Generator: Sketch 41.2 (35397) - http://www.bohemiancoding.com/sketch -->
    <title>Search</title>
    <desc>Created with Sketch.</desc>
    <defs></defs>
    <g id="Page-1" stroke="none" stroke-width="1" fill="none" fill-rule="evenodd">
        <g id="Create-Campaign-" transform="translate(-283.000000, -420.000000)" fill="#505F6D">
            <path d="M289.33944,420 C285.841934,420 283,422.777206 283,426.195053 C283,429.6129 285.841934,432.390106 289.33944,432.390106 C290.723302,432.390106 292.002377,431.95463 293.045402,431.217055 L297.951382,436 L299,434.975265 L294.152193,430.226211 C295.104974,429.141712 295.678879,427.733977 295.678879,426.195053 C295.678879,422.777206 292.836946,420 289.33944,420 L289.33944,420 Z M289.33944,420.72883 C292.433459,420.72883 294.933063,423.171503 294.933063,426.195053 C294.933063,429.218603 292.433459,431.661276 289.33944,431.661276 C286.24542,431.661276 283.745816,429.218603 283.745816,426.195053 C283.745816,423.171503 286.24542,420.72883 289.33944,420.72883 L289.33944,420.72883 Z" id="Search"></path>
        </g>
    </g>
</svg>