<?xml version="1.0" encoding="UTF-8"?>
<svg width="15px" height="15px" viewBox="0 0 15 15" version="1.1" xmlns="http://www.w3.org/2000/svg" xmlns:xlink="http://www.w3.org/1999/xlink">
    <!-- Generator: Sketch 42 (36781) - http://www.bohemiancoding.com/sketch -->
    <title>Group 2</title>
    <desc>Created with Sketch.</desc>
    <defs></defs>
    <g id="Page-1" stroke="none" stroke-width="1" fill="none" fill-rule="evenodd">
        <g id="Basic-Details" transform="translate(-965.000000, -887.000000)" fill="#FFFFFF">
            <g id="GoTo-Bot" transform="translate(954.000000, 880.000000)">
                <g id="Group-2" transform="translate(11.000000, 7.000000)">
                    <path d="M3.45375824,3.63539886 L6.19361115,7.7837677 C6.28672725,8.37240048 6.79542547,8.82568359 7.40917969,8.82568359 C8.08835449,8.82568359 8.64404297,8.26999512 8.64404297,7.59082031 C8.64404297,6.97706609 8.19075985,6.46836787 7.60212708,6.37525177 L3.45375824,3.63539886 Z" id="Path"></path>
                    <path d="M6.79174805,0.181640625 L6.79174805,0.799072266 L6.79174805,3.26879883 L8.02661133,3.26879883 L8.02661133,1.53227234 C11.1518255,1.85185638 13.5834961,4.37448911 13.5834961,7.59082031 C13.5834961,11.0265069 10.8448663,13.7651367 7.40917969,13.7651367 C3.97349312,13.7651367 1.23486328,11.0265069 1.23486328,7.59082031 C1.23486328,5.83611941 1.90644837,4.35469493 3.0871582,3.23020935 L2.2381897,2.32335663 C0.825686641,3.66859761 0,5.51744504 0,7.59082031 C0,11.6877997 3.31220024,15 7.40917969,15 C11.5061591,15 14.8183594,11.6877997 14.8183594,7.59082031 C14.8183594,3.49384087 11.5061591,0.181640625 7.40917969,0.181640625 L6.79174805,0.181640625 Z" id="Path"></path>
                </g>
            </g>
        </g>
    </g>
</svg>