<?xml version="1.0" encoding="UTF-8"?>
<svg width="23px" height="15px" viewBox="0 0 23 15" version="1.1" xmlns="http://www.w3.org/2000/svg" xmlns:xlink="http://www.w3.org/1999/xlink">
    <!-- Generator: Sketch 41.1 (35376) - http://www.bohemiancoding.com/sketch -->
    <title>Shape</title>
    <desc>Created with Sketch.</desc>
    <defs></defs>
    <g id="Page-1" stroke="none" stroke-width="1" fill="none" fill-rule="evenodd">
        <g id="Agreements" transform="translate(-564.000000, -995.000000)" fill="#FFFFFF">
            <g id="Bottom-Controls" transform="translate(0.000000, 971.000000)">
                <g id="Re-Validate-Bot" transform="translate(558.000000, 16.000000)">
                    <path d="M10.8417975,8 C10.6734817,8 10.4190422,8.07599191 10.2393038,8.22727273 C10.0595654,8.37855355 9.91888834,8.57949455 9.7228807,8.89488636 C9.57376583,9.13482409 9.33526882,9.64603727 8.97693616,10.4005682 C8.6186035,11.1550991 8.17393953,12.0987232 7.74325866,13.0284091 C6.88189685,14.8877809 6.06488345,16.6789773 6.06488345,16.6789773 C5.98379191,16.8135035 5.97837128,16.9798966 6.05053836,17.1193182 C6.0549844,17.1289505 6.05976901,17.1384259 6.06488345,17.1477273 C6.09026961,17.2305314 6.11780704,17.3043636 6.16529906,17.3607955 C6.25004912,17.4614991 6.34043584,17.5091577 6.40916554,17.5454545 C6.54662494,17.6180482 6.64389014,17.6479777 6.71041237,17.6875 C6.84345684,17.7665445 6.93993377,17.7843614 6.93993377,18.3125 C6.93993377,19.3743395 7.2448344,20.5495409 8.07319566,21.4659091 C8.90155693,22.3822773 10.2440855,23 12.1758906,23 C13.7404613,23 14.9066903,22.4934936 15.6187116,21.5795455 C16.3307328,20.6655973 16.5798324,19.4191918 16.5798324,18 L16.5798324,16.8920455 C16.7411919,16.7905827 17.0261629,16.6363636 17.497918,16.6363636 C17.9696731,16.6363636 18.2546441,16.7905827 18.4160036,16.8920455 L18.4160036,18 C18.4160036,19.4191918 18.6651031,20.6655973 19.3771244,21.5795455 C20.0891457,22.4934936 21.2553747,23 22.8199454,23 C24.7517503,23 26.0943449,22.3900014 26.9226403,21.4801136 C27.7509357,20.5702259 28.0559022,19.4104436 28.0559022,18.3693182 C28.0559022,17.8147205 28.1605759,17.7869932 28.2854236,17.7159091 C28.3478475,17.6803682 28.4334208,17.6556936 28.5723253,17.5880682 C28.6417776,17.5542545 28.7273739,17.5048632 28.8161918,17.4034091 C28.8845135,17.3253673 28.9371666,17.2156986 28.9596427,17.1051136 C29.0222542,16.9671847 29.0115002,16.8074557 28.9309525,16.6789773 C28.9309525,16.6789773 28.113939,14.8877809 27.2525773,13.0284091 C26.8218965,12.0987232 26.3772323,11.1550991 26.0188998,10.4005682 C25.6605673,9.64603727 25.4220703,9.13482409 25.2729553,8.89488636 C25.0769477,8.57949455 24.9362703,8.37855355 24.7565321,8.22727273 C24.5767939,8.07599191 24.3223543,8 24.1540385,8 C23.9474692,8 23.7160047,8.09577045 23.5515448,8.24147727 C23.3870849,8.38718409 23.2499362,8.58497864 23.0781569,8.85227273 C22.8073621,9.29917545 22.6191141,9.5625 22.6191141,9.5625 C22.5268468,9.69951947 22.5154155,9.87487399 22.5891268,10.0225025 C22.6628381,10.1701311 22.8104922,10.2676027 22.9764635,10.2781971 C23.1424348,10.2887915 23.3015054,10.2108989 23.3937488,10.0738636 C23.3937488,10.0738636 23.5790644,9.78612773 23.8527916,9.33522727 C23.8566476,9.32890455 23.8489357,9.32741364 23.8527916,9.32102273 C23.991743,9.10655091 24.0995203,8.98816091 24.1540385,8.9375 C24.2056257,8.98230909 24.3305184,9.10783409 24.4983206,9.37784091 C24.5328222,9.43335773 24.845177,10.0343605 25.2012298,10.7840909 C25.5572827,11.5338214 25.9905379,12.4836632 26.4205623,13.4119318 C27.0550388,14.7815395 27.3769775,15.4942686 27.6542398,16.0965909 C27.5240557,16.0690023 27.4075313,16.0378832 27.2525773,16.0113636 C26.2804399,15.8449859 24.816569,15.7272727 22.7338748,15.7272727 C21.3836987,15.7272727 20.0104437,16.0273309 18.9611169,16.1676136 C18.7451166,16.0187559 18.2784073,15.7272727 17.497918,15.7272727 C16.7174286,15.7272727 16.2507194,16.0187559 16.0347191,16.1676136 C14.9853923,16.0273309 13.6121373,15.7272727 12.2619611,15.7272727 C10.179267,15.7272727 8.71270635,15.8371673 7.74325866,15.9971591 C7.58873342,16.0226609 7.47024631,16.0537886 7.34159621,16.0823864 C7.62055574,15.4763873 7.94357625,14.7755405 8.57527372,13.4119318 C9.00529807,12.4836632 9.43855345,11.5338214 9.79460613,10.7840909 C10.1506588,10.0343605 10.4630132,9.43335773 10.4975154,9.37784091 L10.4975154,9.36363636 C10.6599725,9.10444318 10.7912629,8.98139227 10.8417975,8.9375 C10.8963157,8.98816091 11.004093,9.10655091 11.1430443,9.32102273 C11.1469003,9.32741364 11.1391884,9.32890455 11.1430443,9.33522727 C11.4167716,9.78612773 11.6020871,10.0738636 11.6020871,10.0738636 C11.6943306,10.2108989 11.8534012,10.2887915 12.0193725,10.2781971 C12.1853438,10.2676027 12.3329979,10.1701311 12.4067092,10.0225025 C12.4804205,9.87487399 12.4689892,9.69951947 12.3767218,9.5625 C12.3767218,9.5625 12.1884739,9.29917545 11.917679,8.85227273 C11.7458997,8.58497864 11.6087511,8.38718409 11.4442912,8.24147727 C11.2798313,8.09577045 11.0483668,8 10.8417975,8 Z M11.7478559,17 C12.8237308,17 13.9808377,17.2370262 15,17.3776042 L15,18.25 C15,19.4490742 14.7634964,20.3898692 14.2590051,21.0104167 C13.7545139,21.6309642 12.9791883,22 11.6655232,22 C10.0005717,22 8.99869238,21.5167667 8.38593482,20.8671875 C7.77317726,20.2176083 7.53516295,19.3547721 7.53516295,18.5364583 C7.53516295,17.9441767 7.27157046,17.5775262 7,17.3645833 C7.1657167,17.3199608 7.30189224,17.2777771 7.57632933,17.234375 C8.42736923,17.0997842 9.78813289,17 11.7478559,17 Z M22.2465753,17 C24.2029427,17 25.5639448,17.1082421 26.4109589,17.2473958 C26.6958917,17.2942067 26.8344622,17.3422454 27,17.390625 C26.7213436,17.6012796 26.4520548,17.9761592 26.4520548,18.5885417 C26.4520548,19.3841767 26.2145109,20.2351054 25.6027397,20.8802083 C24.9909685,21.5253113 23.9908677,22 22.3287671,22 C21.0173515,22 20.2433534,21.6309642 19.739726,21.0104167 C19.2360986,20.3898692 19,19.4490742 19,18.25 L19,17.3776042 C20.0174172,17.2370262 21.1725427,17 22.2465753,17 Z" id="Shape"></path>
                </g>
            </g>
        </g>
    </g>
</svg>